<?xml version="1.0" encoding="UTF-8"?>
<!DOCTYPE svg PUBLIC "-//W3C//DTD SVG 1.1//EN" "http://www.w3.org/Graphics/SVG/1.1/DTD/svg11.dtd">
<svg xmlns="http://www.w3.org/2000/svg" version="1.1" width="912px" height="608px" style="shape-rendering:geometricPrecision; text-rendering:geometricPrecision; image-rendering:optimizeQuality; fill-rule:evenodd; clip-rule:evenodd" xmlns:xlink="http://www.w3.org/1999/xlink">
<g><path style="opacity:0.722" fill="#c5bf99" d="M 230.5,228.5 C 234.514,228.334 238.514,228.501 242.5,229C 244.25,230.754 244.917,232.921 244.5,235.5C 239.772,237.765 234.772,238.932 229.5,239C 223.151,235.104 223.485,231.604 230.5,228.5 Z"/></g>
<g><path style="opacity:0.412" fill="#cfc8bb" d="M 291.5,236.5 C 288.167,237.833 284.833,237.833 281.5,236.5C 282.507,235.172 283.84,234.172 285.5,233.5C 287.563,234.512 289.563,235.512 291.5,236.5 Z"/></g>
<g><path style="opacity:0.038" fill="#fffdd0" d="M 436.5,241.5 C 421.833,241.5 407.167,241.5 392.5,241.5C 378.833,241.5 365.167,241.5 351.5,241.5C 351.611,240.883 351.944,240.383 352.5,240C 359.167,239.833 365.833,239.667 372.5,239.5C 392.534,239.556 412.534,239.556 432.5,239.5C 434.355,239.34 435.688,240.007 436.5,241.5 Z"/></g>
<g><path style="opacity:0.488" fill="#c6c1a5" d="M 392.5,241.5 C 407.167,241.5 421.833,241.5 436.5,241.5C 437.103,246.619 436.436,251.285 434.5,255.5C 434.5,251.5 434.5,247.5 434.5,243.5C 421.833,243.5 409.167,243.5 396.5,243.5C 395.167,242.833 393.833,242.167 392.5,241.5 Z"/></g>
<g><path style="opacity:0.567" fill="#ded8b7" d="M 461.5,241.5 C 460.883,241.611 460.383,241.944 460,242.5C 459.501,246.821 459.334,251.154 459.5,255.5C 458.802,252.103 458.135,248.603 457.5,245C 454.254,245.317 450.92,245.483 447.5,245.5C 446.871,254.82 446.538,264.154 446.5,273.5C 446.5,283.833 446.5,294.167 446.5,304.5C 445.833,283.5 445.167,262.5 444.5,241.5C 445.172,240.733 446.005,240.066 447,239.5C 451.026,239.534 455.193,239.701 459.5,240C 460.416,240.278 461.082,240.778 461.5,241.5 Z"/></g>
<g><path style="opacity:0.852" fill="#bdb796" d="M 351.5,241.5 C 365.167,241.5 378.833,241.5 392.5,241.5C 393.833,242.167 395.167,242.833 396.5,243.5C 382.167,243.5 367.833,243.5 353.5,243.5C 353.5,247.167 353.5,250.833 353.5,254.5C 352.508,254.672 351.842,254.338 351.5,253.5C 351.5,249.5 351.5,245.5 351.5,241.5 Z"/></g>
<g><path style="opacity:1" fill="#af9160" d="M 238.5,239.5 C 239.919,240.451 241.585,240.784 243.5,240.5C 243.423,241.75 242.756,242.583 241.5,243C 243.076,245.951 243.743,249.117 243.5,252.5C 241.198,250.611 238.531,249.444 235.5,249C 234.901,247.378 234.234,245.878 233.5,244.5C 234.069,241.665 235.736,239.999 238.5,239.5 Z"/></g>
<g><path style="opacity:1" fill="#dac687" d="M 281.5,236.5 C 284.833,237.833 288.167,237.833 291.5,236.5C 291.833,236.5 292.167,236.5 292.5,236.5C 292.5,240.833 292.5,245.167 292.5,249.5C 289.482,249.665 286.482,249.498 283.5,249C 282.549,245.943 282.216,242.777 282.5,239.5C 280.784,239.629 279.117,239.962 277.5,240.5C 277.833,238.167 279.167,236.833 281.5,236.5 Z"/></g>
<g><path style="opacity:1" fill="#d5cea6" d="M 226.5,248.5 C 224.744,247.448 224.077,245.781 224.5,243.5C 216.029,243.702 208.529,246.369 202,251.5C 201.506,253.134 201.34,254.801 201.5,256.5C 204.127,257.092 206.794,257.425 209.5,257.5C 209.5,258.833 209.5,260.167 209.5,261.5C 208.833,261.5 208.167,261.5 207.5,261.5C 207.586,260.504 207.252,259.671 206.5,259C 202.55,259.349 199.884,257.682 198.5,254C 200.454,252.259 201.454,250.092 201.5,247.5C 203.597,245.593 205.931,243.759 208.5,242C 212.604,241.345 216.604,240.512 220.5,239.5C 227.199,239.286 229.199,242.286 226.5,248.5 Z"/></g>
<g><path style="opacity:1" fill="#d8cc97" d="M 396.5,243.5 C 409.167,243.5 421.833,243.5 434.5,243.5C 434.5,247.5 434.5,251.5 434.5,255.5C 423.5,255.5 412.5,255.5 401.5,255.5C 401.5,254.833 401.5,254.167 401.5,253.5C 411.855,253.832 422.188,253.499 432.5,252.5C 431.846,250.885 431.346,249.218 431,247.5C 430.25,246.874 429.416,246.374 428.5,246C 419.173,245.5 409.839,245.334 400.5,245.5C 399.833,245.5 399.167,245.5 398.5,245.5C 384.5,244.167 370.5,244.167 356.5,245.5C 355.527,247.948 355.194,250.615 355.5,253.5C 365.506,253.334 375.506,253.5 385.5,254C 386.056,254.383 386.389,254.883 386.5,255.5C 386.5,255.833 386.5,256.167 386.5,256.5C 385.833,256.833 385.167,257.167 384.5,257.5C 374.374,255.842 364.04,254.842 353.5,254.5C 353.5,250.833 353.5,247.167 353.5,243.5C 367.833,243.5 382.167,243.5 396.5,243.5 Z"/></g>
<g><path style="opacity:1" fill="#daca83" d="M 356.5,245.5 C 370.5,244.167 384.5,244.167 398.5,245.5C 393.5,245.5 388.5,245.5 383.5,245.5C 383.15,248.453 384.15,250.787 386.5,252.5C 383.482,252.665 380.482,252.498 377.5,252C 370.925,248.567 363.925,246.4 356.5,245.5 Z"/></g>
<g><path style="opacity:1" fill="#e9db92" d="M 226.5,248.5 C 226.5,249.167 226.167,249.5 225.5,249.5C 223.42,250.044 221.42,250.878 219.5,252C 218.663,253.011 218.33,254.178 218.5,255.5C 217.833,255.5 217.167,255.5 216.5,255.5C 215.07,255.421 213.736,255.754 212.5,256.5C 211.999,258.655 210.999,260.322 209.5,261.5C 209.5,260.167 209.5,258.833 209.5,257.5C 206.794,257.425 204.127,257.092 201.5,256.5C 201.34,254.801 201.506,253.134 202,251.5C 208.529,246.369 216.029,243.702 224.5,243.5C 224.077,245.781 224.744,247.448 226.5,248.5 Z"/></g>
<g><path style="opacity:0.528" fill="#c8bfa9" d="M 201.5,247.5 C 201.454,250.092 200.454,252.259 198.5,254C 199.884,257.682 202.55,259.349 206.5,259C 207.252,259.671 207.586,260.504 207.5,261.5C 205.579,262.363 203.579,263.029 201.5,263.5C 201.804,262.85 202.137,262.183 202.5,261.5C 200.907,260.17 199.24,258.836 197.5,257.5C 196.692,255.577 196.192,253.577 196,251.5C 194.442,253.359 192.609,254.859 190.5,256C 191.448,256.483 192.448,256.649 193.5,256.5C 191.611,260.718 192.611,264.051 196.5,266.5C 197.492,266.328 198.158,266.662 198.5,267.5C 198.5,268.167 198.5,268.833 198.5,269.5C 196.834,270.666 195.167,270.666 193.5,269.5C 192.423,267.271 191.756,264.937 191.5,262.5C 188.918,262.025 186.918,262.692 185.5,264.5C 183.5,264.833 181.5,265.167 179.5,265.5C 181.322,263.196 183.655,261.363 186.5,260C 182.032,258.21 180.698,255.043 182.5,250.5C 186.766,247.7 191.432,246.033 196.5,245.5C 196.215,247.288 196.548,248.955 197.5,250.5C 198.283,248.712 199.616,247.712 201.5,247.5 Z M 189.5,257.5 C 189.361,259.337 188.694,259.67 187.5,258.5C 187.957,257.702 188.624,257.369 189.5,257.5 Z"/></g>
<g><path style="opacity:1" fill="#ac8f54" d="M 264.5,242.5 C 265.583,242.539 266.583,242.873 267.5,243.5C 268.841,249.064 266.508,252.064 260.5,252.5C 261.839,249.347 262.172,246.18 261.5,243C 262.769,243.109 263.769,242.942 264.5,242.5 Z"/></g>
<g><path style="opacity:1" fill="#d5c578" d="M 398.5,245.5 C 399.167,245.5 399.833,245.5 400.5,245.5C 401.23,247.045 402.563,247.878 404.5,248C 409.137,248.829 413.804,249.329 418.5,249.5C 418.5,250.5 418.5,251.5 418.5,252.5C 412.642,252.178 406.975,252.511 401.5,253.5C 401.5,254.167 401.5,254.833 401.5,255.5C 401.167,255.5 400.833,255.5 400.5,255.5C 399.167,255.5 397.833,255.5 396.5,255.5C 397.092,251.926 395.592,249.926 392,249.5C 390.113,251.026 389.113,253.026 389,255.5C 387.955,254.627 387.122,253.627 386.5,252.5C 384.15,250.787 383.15,248.453 383.5,245.5C 388.5,245.5 393.5,245.5 398.5,245.5 Z"/></g>
<g><path style="opacity:1" fill="#dac986" d="M 400.5,245.5 C 409.839,245.334 419.173,245.5 428.5,246C 429.416,246.374 430.25,246.874 431,247.5C 431.346,249.218 431.846,250.885 432.5,252.5C 422.188,253.499 411.855,253.832 401.5,253.5C 406.975,252.511 412.642,252.178 418.5,252.5C 418.5,251.5 418.5,250.5 418.5,249.5C 413.804,249.329 409.137,248.829 404.5,248C 402.563,247.878 401.23,247.045 400.5,245.5 Z"/></g>
<g><path style="opacity:1" fill="#dac683" d="M 243.5,240.5 C 250.913,239.872 257.913,240.539 264.5,242.5C 263.769,242.942 262.769,243.109 261.5,243C 262.172,246.18 261.839,249.347 260.5,252.5C 257.204,252.45 255.871,253.783 256.5,256.5C 256.158,257.338 255.492,257.672 254.5,257.5C 251.706,254.067 248.039,252.4 243.5,252.5C 243.743,249.117 243.076,245.951 241.5,243C 242.756,242.583 243.423,241.75 243.5,240.5 Z"/></g>
<g><path style="opacity:0.643" fill="#bcb193" d="M 292.5,236.5 C 298.685,239.284 300.685,243.951 298.5,250.5C 296.651,252.174 294.484,253.174 292,253.5C 288.549,252.128 285.049,250.961 281.5,250C 278.33,247.669 276.997,244.503 277.5,240.5C 279.117,239.962 280.784,239.629 282.5,239.5C 282.216,242.777 282.549,245.943 283.5,249C 286.482,249.498 289.482,249.665 292.5,249.5C 292.5,245.167 292.5,240.833 292.5,236.5 Z"/></g>
<g><path style="opacity:1" fill="#d5c7a2" d="M 588.5,262.5 C 594.955,261.555 597.288,257.888 595.5,251.5C 592.628,250.217 589.795,250.217 587,251.5C 586.692,250.692 586.192,250.025 585.5,249.5C 582.99,253.145 582.99,256.812 585.5,260.5C 583.887,260.056 582.72,259.056 582,257.5C 580.122,249.597 583.122,244.597 591,242.5C 601.01,245.746 603.177,251.913 597.5,261C 594.597,263.288 591.597,263.788 588.5,262.5 Z"/></g>
<g><path style="opacity:0.859" fill="#bcb093" d="M 256.5,256.5 C 255.871,253.783 257.204,252.45 260.5,252.5C 266.508,252.064 268.841,249.064 267.5,243.5C 266.583,242.873 265.583,242.539 264.5,242.5C 257.913,240.539 250.913,239.872 243.5,240.5C 241.585,240.784 239.919,240.451 238.5,239.5C 242.192,237.067 246.359,236.067 251,236.5C 256.575,237.03 262.075,238.196 267.5,240C 273.823,244.864 273.823,249.531 267.5,254C 264.019,255.686 260.352,256.519 256.5,256.5 Z"/></g>
<g><path style="opacity:0.224" fill="#c6bca0" d="M 233.5,244.5 C 234.234,245.878 234.901,247.378 235.5,249C 238.531,249.444 241.198,250.611 243.5,252.5C 248.039,252.4 251.706,254.067 254.5,257.5C 250.029,257.672 249.696,258.506 253.5,260C 254.252,260.671 254.586,261.504 254.5,262.5C 252.167,261.833 249.833,261.167 247.5,260.5C 245.254,259.545 242.921,258.878 240.5,258.5C 239.833,258.5 239.167,258.5 238.5,258.5C 234.234,256.245 229.568,255.245 224.5,255.5C 222.833,255.5 221.167,255.5 219.5,255.5C 219.167,255.5 218.833,255.5 218.5,255.5C 218.33,254.178 218.663,253.011 219.5,252C 221.42,250.878 223.42,250.044 225.5,249.5C 224.71,250.794 223.71,251.961 222.5,253C 227.5,253.667 232.5,253.667 237.5,253C 235.895,251.64 234.395,250.14 233,248.5C 232.235,246.934 232.402,245.601 233.5,244.5 Z"/></g>
<g><path style="opacity:0.114" fill="#eee5d0" d="M 351.5,253.5 C 351.842,254.338 352.508,254.672 353.5,254.5C 364.04,254.842 374.374,255.842 384.5,257.5C 373.48,257.832 362.48,257.499 351.5,256.5C 350.347,255.313 350.347,254.313 351.5,253.5 Z"/></g>
<g><path style="opacity:0.761" fill="#cec3a9" d="M 297.5,270.5 C 295.125,267.131 292.458,264.131 289.5,261.5C 288.167,261.5 286.833,261.5 285.5,261.5C 285.5,260.5 285.5,259.5 285.5,258.5C 283.42,257.956 281.42,257.122 279.5,256C 279.833,255.667 280.167,255.333 280.5,255C 278.288,254.211 276.288,254.378 274.5,255.5C 271.855,257.311 269.355,259.311 267,261.5C 265.862,261.989 264.695,262.322 263.5,262.5C 264.462,258.205 267.129,255.538 271.5,254.5C 282.381,253.182 290.881,257.182 297,266.5C 297.49,267.793 297.657,269.127 297.5,270.5 Z"/></g>
<g><path style="opacity:1" fill="#c0a767" d="M 588.5,262.5 C 586.821,262.715 585.821,262.048 585.5,260.5C 582.99,256.812 582.99,253.145 585.5,249.5C 586.192,250.025 586.692,250.692 587,251.5C 589.795,250.217 592.628,250.217 595.5,251.5C 597.288,257.888 594.955,261.555 588.5,262.5 Z"/></g>
<g><path style="opacity:1" fill="#decc81" d="M 227.5,258.5 C 228.552,258.351 229.552,258.517 230.5,259C 229.183,266.934 228.516,275.1 228.5,283.5C 228.667,291.5 228.833,299.5 229,307.5C 229.671,308.252 230.504,308.586 231.5,308.5C 231.5,309.167 231.5,309.833 231.5,310.5C 230.167,310.5 228.833,310.5 227.5,310.5C 227.013,309.527 226.513,308.527 226,307.5C 225.176,291.926 225.343,276.426 226.5,261C 223.949,259.484 224.282,258.651 227.5,258.5 Z"/></g>
<g><path style="opacity:1" fill="#dcd199" d="M 459.5,255.5 C 459.334,265.506 459.5,275.506 460,285.5C 460.951,285.884 461.784,286.217 462.5,286.5C 462.737,287.791 462.404,288.791 461.5,289.5C 460.069,289.119 459.236,288.119 459,286.5C 458.826,281.316 458.326,276.316 457.5,271.5C 457.777,266.767 457.443,262.1 456.5,257.5C 454.067,255.946 451.4,255.28 448.5,255.5C 447.705,259.785 447.372,264.119 447.5,268.5C 447.5,270.167 447.5,271.833 447.5,273.5C 447.167,273.5 446.833,273.5 446.5,273.5C 446.538,264.154 446.871,254.82 447.5,245.5C 450.92,245.483 454.254,245.317 457.5,245C 458.135,248.603 458.802,252.103 459.5,255.5 Z"/></g>
<g><path style="opacity:1" fill="#d5bf77" d="M 224.5,255.5 C 229.568,255.245 234.234,256.245 238.5,258.5C 237.167,258.5 235.833,258.5 234.5,258.5C 234.833,274.847 234.499,291.18 233.5,307.5C 232.817,307.863 232.15,308.196 231.5,308.5C 230.504,308.586 229.671,308.252 229,307.5C 228.833,299.5 228.667,291.5 228.5,283.5C 228.516,275.1 229.183,266.934 230.5,259C 229.552,258.517 228.552,258.351 227.5,258.5C 226.9,257.1 225.9,256.1 224.5,255.5 Z"/></g>
<g><path style="opacity:1" fill="#f3e998" d="M 216.5,255.5 C 217.167,255.5 217.833,255.5 218.5,255.5C 218.833,255.5 219.167,255.5 219.5,255.5C 219.5,256.833 219.5,258.167 219.5,259.5C 219.5,276.5 219.5,293.5 219.5,310.5C 217.381,310.532 216.048,309.532 215.5,307.5C 215.26,289.916 215.593,272.583 216.5,255.5 Z"/></g>
<g><path style="opacity:1" fill="#ebdf90" d="M 219.5,259.5 C 220.458,259.953 221.292,260.619 222,261.5C 222.333,277.167 222.667,292.833 223,308.5C 223.417,309.756 224.25,310.423 225.5,310.5C 223.5,311.833 221.5,311.833 219.5,310.5C 219.5,293.5 219.5,276.5 219.5,259.5 Z"/></g>
<g><path style="opacity:1" fill="#e3d58d" d="M 356.5,245.5 C 363.925,246.4 370.925,248.567 377.5,252C 380.482,252.498 383.482,252.665 386.5,252.5C 387.122,253.627 387.955,254.627 389,255.5C 389.113,253.026 390.113,251.026 392,249.5C 395.592,249.926 397.092,251.926 396.5,255.5C 397.833,255.5 399.167,255.5 400.5,255.5C 400.167,259.5 399.833,263.5 399.5,267.5C 396.407,265.793 393.074,264.293 389.5,263C 388.033,260.622 387.033,258.122 386.5,255.5C 386.389,254.883 386.056,254.383 385.5,254C 375.506,253.5 365.506,253.334 355.5,253.5C 355.194,250.615 355.527,247.948 356.5,245.5 Z"/></g>
<g><path style="opacity:1" fill="#d5c67e" d="M 457.5,271.5 C 456.833,271.5 456.5,271.833 456.5,272.5C 453.187,271.842 450.187,270.509 447.5,268.5C 447.372,264.119 447.705,259.785 448.5,255.5C 451.4,255.28 454.067,255.946 456.5,257.5C 457.443,262.1 457.777,266.767 457.5,271.5 Z"/></g>
<g><path style="opacity:1" fill="#e6d68a" d="M 219.5,255.5 C 221.167,255.5 222.833,255.5 224.5,255.5C 225.9,256.1 226.9,257.1 227.5,258.5C 224.282,258.651 223.949,259.484 226.5,261C 225.343,276.426 225.176,291.926 226,307.5C 226.513,308.527 227.013,309.527 227.5,310.5C 226.833,310.5 226.167,310.5 225.5,310.5C 224.25,310.423 223.417,309.756 223,308.5C 222.667,292.833 222.333,277.167 222,261.5C 221.292,260.619 220.458,259.953 219.5,259.5C 219.5,258.167 219.5,256.833 219.5,255.5 Z"/></g>
<g><path style="opacity:0.392" fill="#bfb6a2" d="M 444.5,241.5 C 445.167,262.5 445.833,283.5 446.5,304.5C 446.5,306.167 446.5,307.833 446.5,309.5C 446.5,310.833 446.5,312.167 446.5,313.5C 445.282,326.013 445.282,338.679 446.5,351.5C 444.506,315.182 443.84,278.515 444.5,241.5 Z"/></g>
<g><path style="opacity:1" fill="#eadf8e" d="M 216.5,255.5 C 215.593,272.583 215.26,289.916 215.5,307.5C 213.916,306.618 212.249,305.785 210.5,305C 209.903,303.938 209.57,302.772 209.5,301.5C 209.818,294.219 210.818,287.053 212.5,280C 211.582,277.914 210.915,275.747 210.5,273.5C 211.715,272.221 211.382,271.221 209.5,270.5C 210.588,267.556 210.588,264.556 209.5,261.5C 210.999,260.322 211.999,258.655 212.5,256.5C 213.736,255.754 215.07,255.421 216.5,255.5 Z"/></g>
<g><path style="opacity:1" fill="#f1e5a6" d="M 386.5,255.5 C 387.033,258.122 388.033,260.622 389.5,263C 393.074,264.293 396.407,265.793 399.5,267.5C 399.833,263.5 400.167,259.5 400.5,255.5C 400.833,255.5 401.167,255.5 401.5,255.5C 401.5,265.5 401.5,275.5 401.5,285.5C 397.217,286.011 393.217,285.344 389.5,283.5C 388.712,284.77 387.712,285.77 386.5,286.5C 386.5,276.5 386.5,266.5 386.5,256.5C 386.5,256.167 386.5,255.833 386.5,255.5 Z"/></g>
<g><path style="opacity:1" fill="#b2985c" d="M 274.5,255.5 C 273.695,264.592 273.362,273.925 273.5,283.5C 272.209,283.737 271.209,283.404 270.5,282.5C 269.271,279.434 267.437,276.767 265,274.5C 264.696,270.452 264.196,266.452 263.5,262.5C 264.695,262.322 265.862,261.989 267,261.5C 269.355,259.311 271.855,257.311 274.5,255.5 Z"/></g>
<g><path style="opacity:1" fill="#e1d088" d="M 289.5,261.5 C 289.5,262.833 289.5,264.167 289.5,265.5C 288.345,272.184 288.345,278.851 289.5,285.5C 289.196,286.15 288.863,286.817 288.5,287.5C 286.667,287.833 284.833,288.167 283,288.5C 279.581,288.351 276.581,287.351 274,285.5C 272.93,285.528 272.097,285.861 271.5,286.5C 270.833,286.5 270.5,286.167 270.5,285.5C 269.375,284.348 269.375,283.348 270.5,282.5C 271.209,283.404 272.209,283.737 273.5,283.5C 273.362,273.925 273.695,264.592 274.5,255.5C 276.288,254.378 278.288,254.211 280.5,255C 280.167,255.333 279.833,255.667 279.5,256C 281.42,257.122 283.42,257.956 285.5,258.5C 285.5,259.5 285.5,260.5 285.5,261.5C 286.833,261.5 288.167,261.5 289.5,261.5 Z"/></g>
<g><path style="opacity:1" fill="#d8c483" d="M 207.5,261.5 C 208.167,261.5 208.833,261.5 209.5,261.5C 210.588,264.556 210.588,267.556 209.5,270.5C 208.542,270.953 207.708,271.619 207,272.5C 206.892,276.177 206.892,279.843 207,283.5C 206.583,284.756 205.75,285.423 204.5,285.5C 203.687,282.394 202.687,279.394 201.5,276.5C 203.35,273.796 204.35,270.796 204.5,267.5C 202.5,267.5 200.5,267.5 198.5,267.5C 198.158,266.662 197.492,266.328 196.5,266.5C 198.045,265.36 199.712,264.36 201.5,263.5C 203.579,263.029 205.579,262.363 207.5,261.5 Z"/></g>
<g><path style="opacity:1" fill="#b38f4d" d="M 240.5,258.5 C 242.921,258.878 245.254,259.545 247.5,260.5C 249.013,262.516 249.847,264.849 250,267.5C 250.671,268.252 251.504,268.586 252.5,268.5C 252.294,270.549 251.461,270.883 250,269.5C 250.613,272.856 250.446,276.19 249.5,279.5C 249.225,281.842 248.392,281.842 247,279.5C 246.505,281.473 246.338,283.473 246.5,285.5C 243.216,282.57 241.216,278.903 240.5,274.5C 240.5,270.167 240.5,265.833 240.5,261.5C 239.325,261.719 238.325,261.386 237.5,260.5C 238.602,259.824 239.602,259.158 240.5,258.5 Z"/></g>
<g><path style="opacity:1" fill="#a07c47" d="M 185.5,264.5 C 188.253,265.593 188.92,267.426 187.5,270C 188.357,270.689 189.023,271.522 189.5,272.5C 188.5,273.833 187.5,275.167 186.5,276.5C 187.833,277.5 189.167,278.5 190.5,279.5C 188.43,279.552 186.097,279.719 183.5,280C 182.748,280.671 182.414,281.504 182.5,282.5C 180.457,285.515 177.791,286.182 174.5,284.5C 174.159,278.871 175.159,273.538 177.5,268.5C 177.285,266.821 177.952,265.821 179.5,265.5C 181.5,265.167 183.5,264.833 185.5,264.5 Z"/></g>
<g><path style="opacity:1" fill="#b79050" d="M 289.5,265.5 C 291.373,266.863 293.039,268.53 294.5,270.5C 294.833,271.5 295.167,272.5 295.5,273.5C 294.749,277.753 293.416,281.753 291.5,285.5C 290.833,285.5 290.167,285.5 289.5,285.5C 288.345,278.851 288.345,272.184 289.5,265.5 Z"/></g>
<g><path style="opacity:1" fill="#dcc97f" d="M 209.5,270.5 C 211.382,271.221 211.715,272.221 210.5,273.5C 210.565,273.062 210.399,272.728 210,272.5C 208.701,273.09 207.868,274.09 207.5,275.5C 208.553,286.142 208.719,296.808 208,307.5C 206.989,308.337 205.822,308.67 204.5,308.5C 200.865,308.344 200.532,307.178 203.5,305C 204.448,304.517 205.448,304.351 206.5,304.5C 206.607,302.097 205.607,300.264 203.5,299C 204.467,294.599 204.8,290.099 204.5,285.5C 205.75,285.423 206.583,284.756 207,283.5C 206.892,279.843 206.892,276.177 207,272.5C 207.708,271.619 208.542,270.953 209.5,270.5 Z"/></g>
<g><path style="opacity:1" fill="#96784b" d="M 247.5,260.5 C 249.833,261.167 252.167,261.833 254.5,262.5C 255.782,266.273 257.282,269.94 259,273.5C 259.749,280.597 259.249,287.597 257.5,294.5C 255.763,296.744 253.763,298.91 251.5,301C 248.079,303.364 244.413,305.197 240.5,306.5C 241.5,305.167 242.5,303.833 243.5,302.5C 246.105,301.532 248.439,300.198 250.5,298.5C 251.906,296.526 253.406,294.526 255,292.5C 255.282,288.961 255.782,285.461 256.5,282C 255.77,278.206 255.27,274.373 255,270.5C 254.292,269.619 253.458,268.953 252.5,268.5C 251.504,268.586 250.671,268.252 250,267.5C 249.847,264.849 249.013,262.516 247.5,260.5 Z"/></g>
<g><path style="opacity:1" fill="#b79a60" d="M 198.5,269.5 C 197.97,272.031 196.636,274.031 194.5,275.5C 195.575,283.815 195.408,292.149 194,300.5C 193.148,299.429 192.315,298.429 191.5,297.5C 189.866,292.563 188.866,287.229 188.5,281.5C 186.217,280.15 184.217,280.483 182.5,282.5C 182.414,281.504 182.748,280.671 183.5,280C 186.097,279.719 188.43,279.552 190.5,279.5C 189.167,278.5 187.833,277.5 186.5,276.5C 187.5,275.167 188.5,273.833 189.5,272.5C 189.023,271.522 188.357,270.689 187.5,270C 188.92,267.426 188.253,265.593 185.5,264.5C 186.918,262.692 188.918,262.025 191.5,262.5C 191.756,264.937 192.423,267.271 193.5,269.5C 195.167,270.666 196.834,270.666 198.5,269.5 Z"/></g>
<g><path style="opacity:0.659" fill="#9b8661" d="M 289.5,261.5 C 292.458,264.131 295.125,267.131 297.5,270.5C 297.5,270.833 297.5,271.167 297.5,271.5C 298.226,277.535 296.392,282.535 292,286.5C 291.601,286.272 291.435,285.938 291.5,285.5C 293.416,281.753 294.749,277.753 295.5,273.5C 295.167,272.5 294.833,271.5 294.5,270.5C 293.039,268.53 291.373,266.863 289.5,265.5C 289.5,264.167 289.5,262.833 289.5,261.5 Z"/></g>
<g><path style="opacity:1" fill="#e8db91" d="M 447.5,268.5 C 450.187,270.509 453.187,271.842 456.5,272.5C 456.666,277.179 456.499,281.845 456,286.5C 453.667,285.833 451.333,285.167 449,284.5C 447.763,280.94 447.263,277.273 447.5,273.5C 447.5,271.833 447.5,270.167 447.5,268.5 Z"/></g>
<g><path style="opacity:0.416" fill="#cbbcac" d="M 177.5,268.5 C 175.159,273.538 174.159,278.871 174.5,284.5C 173.883,284.389 173.383,284.056 173,283.5C 172.063,278.597 172.73,273.93 175,269.5C 175.671,268.748 176.504,268.414 177.5,268.5 Z"/></g>
<g><path style="opacity:0.616" fill="#cfc9aa" d="M 461.5,241.5 C 461.333,255.837 461.5,270.171 462,284.5C 465.142,281.783 468.642,279.616 472.5,278C 501.581,272.914 514.914,285.081 512.5,314.5C 511.833,314.5 511.167,314.5 510.5,314.5C 510.666,310.154 510.499,305.821 510,301.5C 509.617,300.944 509.117,300.611 508.5,300.5C 509.585,292.759 506.585,287.426 499.5,284.5C 498.754,283.264 498.421,281.93 498.5,280.5C 490.497,279.389 482.497,279.389 474.5,280.5C 471.12,283.684 467.12,285.684 462.5,286.5C 461.784,286.217 460.951,285.884 460,285.5C 459.5,275.506 459.334,265.506 459.5,255.5C 459.334,251.154 459.501,246.821 460,242.5C 460.383,241.944 460.883,241.611 461.5,241.5 Z"/></g>
<g><path style="opacity:0.988" fill="#dcd6c2" d="M 634.5,298.5 C 633.833,298.5 633.167,298.5 632.5,298.5C 630.798,294.28 629.465,289.947 628.5,285.5C 625.886,285.723 624.219,284.556 623.5,282C 621.098,281.186 618.765,281.353 616.5,282.5C 615.669,285.664 616.002,288.664 617.5,291.5C 617.433,293.401 617.767,295.234 618.5,297C 618.361,298.301 617.695,299.134 616.5,299.5C 614.347,293.854 612.18,288.188 610,282.5C 609.506,280.866 609.34,279.199 609.5,277.5C 615.5,277.5 621.5,277.5 627.5,277.5C 630.208,284.367 632.541,291.367 634.5,298.5 Z"/></g>
<g><path style="opacity:0.967" fill="#d9d0b6" d="M 750.5,291.5 C 749.198,292.807 747.865,292.807 746.5,291.5C 744.194,287.194 740.861,283.861 736.5,281.5C 728.064,279.6 719.731,279.266 711.5,280.5C 707.774,281.191 704.107,282.191 700.5,283.5C 698.549,284.774 697.215,286.44 696.5,288.5C 694.883,289.038 693.216,289.371 691.5,289.5C 692.215,287.44 693.549,285.774 695.5,284.5C 698.511,281.993 701.844,279.993 705.5,278.5C 710.853,278.055 716.02,277.055 721,275.5C 732.456,275.825 741.956,280.158 749.5,288.5C 750.127,289.417 750.461,290.417 750.5,291.5 Z"/></g>
<g><path style="opacity:1" fill="#f9efa8" d="M 394.5,268.5 C 395.85,271.106 397.35,271.106 399,268.5C 399.499,273.489 399.666,278.489 399.5,283.5C 395.39,283.61 391.723,282.61 388.5,280.5C 388.177,276.774 388.511,273.107 389.5,269.5C 391.289,270.247 392.956,269.914 394.5,268.5 Z"/></g>
<g><path style="opacity:0.312" fill="#d6d1b9" d="M 572.5,285.5 C 571.837,283.958 571.17,282.291 570.5,280.5C 562.795,278.578 555.462,279.411 548.5,283C 547.748,283.671 547.414,284.504 547.5,285.5C 546.325,285.719 545.325,285.386 544.5,284.5C 544.624,283.893 544.957,283.56 545.5,283.5C 546.833,283.167 546.833,282.833 545.5,282.5C 540.988,280.354 536.321,279.687 531.5,280.5C 531.158,279.662 530.492,279.328 529.5,279.5C 534.735,277.55 540.402,276.883 546.5,277.5C 546.312,279.103 546.812,280.437 548,281.5C 552.254,278.517 556.921,276.517 562,275.5C 565.367,276.883 568.867,277.717 572.5,278C 573.428,278.388 574.095,279.055 574.5,280C 574.046,282.03 573.38,283.863 572.5,285.5 Z"/></g>
<g><path style="opacity:0.565" fill="#b6a38d" d="M 254.5,262.5 C 255.496,262.414 256.329,262.748 257,263.5C 258.967,265.901 260.467,268.567 261.5,271.5C 262.167,268.358 262.834,265.358 263.5,262.5C 264.196,266.452 264.696,270.452 265,274.5C 267.437,276.767 269.271,279.434 270.5,282.5C 269.375,283.348 269.375,284.348 270.5,285.5C 269.761,285.631 269.094,285.464 268.5,285C 267.044,283.255 265.711,281.422 264.5,279.5C 263.143,284.132 261.476,288.632 259.5,293C 259.164,294.03 258.497,294.53 257.5,294.5C 259.249,287.597 259.749,280.597 259,273.5C 257.282,269.94 255.782,266.273 254.5,262.5 Z"/></g>
<g><path style="opacity:1" fill="#b49650" d="M 672.5,289.5 C 671.048,288.698 669.382,288.198 667.5,288C 666.965,285.891 665.965,285.391 664.5,286.5C 663.534,284.604 663.201,282.604 663.5,280.5C 668.121,279.291 672.787,279.291 677.5,280.5C 677.444,283.394 676.61,286.061 675,288.5C 674.329,289.252 673.496,289.586 672.5,289.5 Z"/></g>
<g><path style="opacity:1" fill="#c6ad68" d="M 238.5,258.5 C 239.167,258.5 239.833,258.5 240.5,258.5C 239.602,259.158 238.602,259.824 237.5,260.5C 238.325,261.386 239.325,261.719 240.5,261.5C 240.5,265.833 240.5,270.167 240.5,274.5C 239.778,274.918 239.278,275.584 239,276.5C 237.669,283.459 237.336,290.459 238,297.5C 240.016,298.955 240.849,300.955 240.5,303.5C 239.5,303.5 238.5,303.5 237.5,303.5C 237.5,304.833 237.5,306.167 237.5,307.5C 235.784,308.971 233.784,309.971 231.5,310.5C 231.5,309.833 231.5,309.167 231.5,308.5C 232.15,308.196 232.817,307.863 233.5,307.5C 234.499,291.18 234.833,274.847 234.5,258.5C 235.833,258.5 237.167,258.5 238.5,258.5 Z"/></g>
<g><path style="opacity:1" fill="#e6d88d" d="M 505.5,294.5 C 504.5,294.5 503.5,294.5 502.5,294.5C 502.349,297.718 501.516,298.051 500,295.5C 498.701,295.966 497.201,295.966 495.5,295.5C 494.761,295.631 494.094,295.464 493.5,295C 492.279,292.966 490.945,291.133 489.5,289.5C 489.5,288.5 489.5,287.5 489.5,286.5C 486.626,286.451 483.792,286.784 481,287.5C 478.176,286.946 475.343,286.446 472.5,286C 473.337,284.989 473.67,283.822 473.5,282.5C 483.636,278.193 492.136,280.193 499,288.5C 499.667,287.833 500.333,287.167 501,286.5C 501.766,289.712 503.266,292.379 505.5,294.5 Z"/></g>
<g><path style="opacity:1" fill="#d4b875" d="M 711.5,280.5 C 720.662,281.873 729.662,284.04 738.5,287C 742.309,290.735 746.309,294.235 750.5,297.5C 753.994,301.836 755.327,306.836 754.5,312.5C 750.265,313.436 745.931,313.769 741.5,313.5C 741.843,311.517 741.176,310.183 739.5,309.5C 739.5,306.833 739.5,304.167 739.5,301.5C 738.718,296.201 736.051,292.034 731.5,289C 724.797,288.287 718.13,288.454 711.5,289.5C 711.5,288.167 711.5,286.833 711.5,285.5C 706.109,284.867 701.109,285.867 696.5,288.5C 697.215,286.44 698.549,284.774 700.5,283.5C 704.107,282.191 707.774,281.191 711.5,280.5 Z"/></g>
<g><path style="opacity:1" fill="#cab26c" d="M 198.5,267.5 C 200.5,267.5 202.5,267.5 204.5,267.5C 204.35,270.796 203.35,273.796 201.5,276.5C 202.687,279.394 203.687,282.394 204.5,285.5C 204.8,290.099 204.467,294.599 203.5,299C 205.607,300.264 206.607,302.097 206.5,304.5C 205.448,304.351 204.448,304.517 203.5,305C 200.532,307.178 200.865,308.344 204.5,308.5C 204.5,308.833 204.5,309.167 204.5,309.5C 201.451,308.694 198.451,307.694 195.5,306.5C 193.2,304.025 191.867,301.025 191.5,297.5C 192.315,298.429 193.148,299.429 194,300.5C 195.408,292.149 195.575,283.815 194.5,275.5C 196.636,274.031 197.97,272.031 198.5,269.5C 198.5,268.833 198.5,268.167 198.5,267.5 Z"/></g>
<g><path style="opacity:1" fill="#ac8348" d="M 249.5,279.5 C 251.453,280.244 252.453,281.744 252.5,284C 251.624,286.754 251.624,289.421 252.5,292C 250.771,293.789 250.104,295.956 250.5,298.5C 248.439,300.198 246.105,301.532 243.5,302.5C 243.942,299.657 244.942,296.991 246.5,294.5C 245.689,293.784 245.022,292.95 244.5,292C 246.003,290.079 246.669,287.912 246.5,285.5C 246.338,283.473 246.505,281.473 247,279.5C 248.392,281.842 249.225,281.842 249.5,279.5 Z"/></g>
<g><path style="opacity:1" fill="#9f7837" d="M 252.5,268.5 C 253.458,268.953 254.292,269.619 255,270.5C 255.27,274.373 255.77,278.206 256.5,282C 255.782,285.461 255.282,288.961 255,292.5C 253.406,294.526 251.906,296.526 250.5,298.5C 250.104,295.956 250.771,293.789 252.5,292C 251.624,289.421 251.624,286.754 252.5,284C 252.453,281.744 251.453,280.244 249.5,279.5C 250.446,276.19 250.613,272.856 250,269.5C 251.461,270.883 252.294,270.549 252.5,268.5 Z"/></g>
<g><path style="opacity:1" fill="#e5dca0" d="M 508.5,300.5 C 507.8,298.987 506.8,296.987 505.5,294.5C 503.266,292.379 501.766,289.712 501,286.5C 500.333,287.167 499.667,287.833 499,288.5C 492.136,280.193 483.636,278.193 473.5,282.5C 473.67,283.822 473.337,284.989 472.5,286C 475.343,286.446 478.176,286.946 481,287.5C 483.792,286.784 486.626,286.451 489.5,286.5C 489.5,287.5 489.5,288.5 489.5,289.5C 479.799,286.655 471.466,288.655 464.5,295.5C 464.727,293.067 463.727,291.401 461.5,290.5C 461.5,290.167 461.5,289.833 461.5,289.5C 462.404,288.791 462.737,287.791 462.5,286.5C 467.12,285.684 471.12,283.684 474.5,280.5C 482.497,279.389 490.497,279.389 498.5,280.5C 498.421,281.93 498.754,283.264 499.5,284.5C 506.585,287.426 509.585,292.759 508.5,300.5 Z"/></g>
<g><path style="opacity:1" fill="#eee29e" d="M 457.5,271.5 C 458.326,276.316 458.826,281.316 459,286.5C 459.236,288.119 460.069,289.119 461.5,289.5C 461.5,289.833 461.5,290.167 461.5,290.5C 461.53,291.497 461.03,292.164 460,292.5C 457.807,292.149 455.974,291.149 454.5,289.5C 453.784,290.311 452.95,290.978 452,291.5C 450.674,290.201 449.34,288.868 448,287.5C 447.502,290.817 447.335,294.15 447.5,297.5C 450.482,297.827 453.315,297.827 456,297.5C 457.55,298.591 458.717,299.924 459.5,301.5C 459.5,304.167 459.5,306.833 459.5,309.5C 457.04,308.122 454.374,307.122 451.5,306.5C 449.577,307.092 447.911,308.092 446.5,309.5C 446.5,307.833 446.5,306.167 446.5,304.5C 446.5,294.167 446.5,283.833 446.5,273.5C 446.833,273.5 447.167,273.5 447.5,273.5C 447.263,277.273 447.763,280.94 449,284.5C 451.333,285.167 453.667,285.833 456,286.5C 456.499,281.845 456.666,277.179 456.5,272.5C 456.5,271.833 456.833,271.5 457.5,271.5 Z"/></g>
<g><path style="opacity:1" fill="#d2c8a3" d="M 572.5,285.5 C 573.056,289.193 571.722,291.86 568.5,293.5C 563.039,290.576 558.039,291.243 553.5,295.5C 552.368,293.533 552.701,291.7 554.5,290C 557.807,288.716 561.141,287.383 564.5,286C 565.357,285.311 566.023,284.478 566.5,283.5C 564.854,282.34 563.021,281.673 561,281.5C 556.538,283.169 552.038,284.502 547.5,285.5C 547.414,284.504 547.748,283.671 548.5,283C 555.462,279.411 562.795,278.578 570.5,280.5C 571.17,282.291 571.837,283.958 572.5,285.5 Z"/></g>
<g><path style="opacity:1" fill="#e0ce99" d="M 711.5,280.5 C 719.731,279.266 728.064,279.6 736.5,281.5C 740.861,283.861 744.194,287.194 746.5,291.5C 747.865,292.807 749.198,292.807 750.5,291.5C 750.5,293.5 750.5,295.5 750.5,297.5C 746.309,294.235 742.309,290.735 738.5,287C 729.662,284.04 720.662,281.873 711.5,280.5 Z"/></g>
<g><path style="opacity:0.425" fill="#cabfa8" d="M 297.5,271.5 C 298.777,272.694 299.444,274.36 299.5,276.5C 299.098,282.821 296.098,287.321 290.5,290C 286.167,290.667 281.833,290.667 277.5,290C 275.121,289.284 273.121,288.117 271.5,286.5C 272.097,285.861 272.93,285.528 274,285.5C 276.581,287.351 279.581,288.351 283,288.5C 284.833,288.167 286.667,287.833 288.5,287.5C 288.863,286.817 289.196,286.15 289.5,285.5C 290.167,285.5 290.833,285.5 291.5,285.5C 291.435,285.938 291.601,286.272 292,286.5C 296.392,282.535 298.226,277.535 297.5,271.5 Z"/></g>
<g><path style="opacity:0.682" fill="#c9be9d" d="M 162.5,278.5 C 164.833,278.5 167.167,278.5 169.5,278.5C 169.297,280.39 169.963,281.89 171.5,283C 169.903,285.026 168.903,287.359 168.5,290C 166.802,293.964 163.802,295.464 159.5,294.5C 159.045,292.633 158.378,290.8 157.5,289C 158.331,284.959 159.997,281.459 162.5,278.5 Z"/></g>
<g><path style="opacity:0.831" fill="#dbd4b4" d="M 489.5,289.5 C 490.945,291.133 492.279,292.966 493.5,295C 494.094,295.464 494.761,295.631 495.5,295.5C 496.29,302.471 496.623,309.471 496.5,316.5C 496.5,320.5 496.5,324.5 496.5,328.5C 496.5,335.5 496.5,342.5 496.5,349.5C 496.5,350.167 496.5,350.833 496.5,351.5C 494.678,335.531 493.845,319.197 494,302.5C 492.182,295.146 487.349,291.48 479.5,291.5C 475.367,292.211 471.367,293.544 467.5,295.5C 464.767,299.485 462.767,303.818 461.5,308.5C 462.705,311.988 462.705,315.322 461.5,318.5C 461.5,317.167 460.833,316.5 459.5,316.5C 459.5,314.167 459.5,311.833 459.5,309.5C 459.5,306.833 459.5,304.167 459.5,301.5C 461.219,299.456 462.886,297.456 464.5,295.5C 471.466,288.655 479.799,286.655 489.5,289.5 Z"/></g>
<g><path style="opacity:0.47" fill="#cab995" d="M 739.5,301.5 C 738.833,301.5 738.167,301.5 737.5,301.5C 733.777,294.754 727.943,291.421 720,291.5C 714.562,292.59 709.729,294.923 705.5,298.5C 705.074,297.472 705.074,296.139 705.5,294.5C 706.5,294.5 707.5,294.5 708.5,294.5C 708.31,292.041 709.31,290.374 711.5,289.5C 718.13,288.454 724.797,288.287 731.5,289C 736.051,292.034 738.718,296.201 739.5,301.5 Z"/></g>
<g><path style="opacity:1" fill="#e1cd8e" d="M 401.5,285.5 C 401.5,288.167 401.5,290.833 401.5,293.5C 401.5,294.833 401.5,296.167 401.5,297.5C 400.842,296.602 400.176,295.602 399.5,294.5C 398.914,294.709 398.414,295.043 398,295.5C 395.931,294.736 393.764,294.236 391.5,294C 392.706,292.982 392.373,292.482 390.5,292.5C 389.133,293.225 387.8,293.892 386.5,294.5C 386.5,291.833 386.5,289.167 386.5,286.5C 387.712,285.77 388.712,284.77 389.5,283.5C 393.217,285.344 397.217,286.011 401.5,285.5 Z"/></g>
<g><path style="opacity:1" fill="#d6c988" d="M 545.5,282.5 C 545.5,282.833 545.5,283.167 545.5,283.5C 544.957,283.56 544.624,283.893 544.5,284.5C 545.325,285.386 546.325,285.719 547.5,285.5C 552.038,284.502 556.538,283.169 561,281.5C 563.021,281.673 564.854,282.34 566.5,283.5C 566.023,284.478 565.357,285.311 564.5,286C 561.141,287.383 557.807,288.716 554.5,290C 552.701,291.7 552.368,293.533 553.5,295.5C 551.5,296.167 549.5,296.833 547.5,297.5C 546.833,297.5 546.167,297.5 545.5,297.5C 544.49,294.67 542.823,292.17 540.5,290C 539.256,289.544 538.423,290.044 538,291.5C 537.751,290.376 537.251,289.376 536.5,288.5C 536.167,288.667 535.833,288.833 535.5,289C 535.753,294.146 535.419,299.313 534.5,304.5C 533.652,303.375 532.652,303.375 531.5,304.5C 531.5,296.5 531.5,288.5 531.5,280.5C 536.321,279.687 540.988,280.354 545.5,282.5 Z"/></g>
<g><path style="opacity:0.179" fill="#dfdbca" d="M 598.5,351.5 C 598.5,328.5 598.5,305.5 598.5,282.5C 594.342,280.771 590.009,280.271 585.5,281C 584.594,282.699 584.261,284.533 584.5,286.5C 583.5,286.833 582.833,287.5 582.5,288.5C 581.18,285.101 581.18,281.601 582.5,278C 588.491,277.501 594.491,277.334 600.5,277.5C 601.157,302.523 600.49,327.189 598.5,351.5 Z"/></g>
<g><path style="opacity:0.173" fill="#d4d0bb" d="M 436.5,241.5 C 437.824,246.567 437.824,251.734 436.5,257C 425.505,257.5 414.505,257.667 403.5,257.5C 403.5,272.5 403.5,287.5 403.5,302.5C 402.833,299.5 402.167,296.5 401.5,293.5C 401.5,290.833 401.5,288.167 401.5,285.5C 401.5,275.5 401.5,265.5 401.5,255.5C 412.5,255.5 423.5,255.5 434.5,255.5C 436.436,251.285 437.103,246.619 436.5,241.5 Z"/></g>
<g><path style="opacity:1" fill="#faf2ab" d="M 461.5,290.5 C 463.727,291.401 464.727,293.067 464.5,295.5C 462.886,297.456 461.219,299.456 459.5,301.5C 458.717,299.924 457.55,298.591 456,297.5C 453.315,297.827 450.482,297.827 447.5,297.5C 447.335,294.15 447.502,290.817 448,287.5C 449.34,288.868 450.674,290.201 452,291.5C 452.95,290.978 453.784,290.311 454.5,289.5C 455.974,291.149 457.807,292.149 460,292.5C 461.03,292.164 461.53,291.497 461.5,290.5 Z"/></g>
<g><path style="opacity:1" fill="#ecddae" d="M 632.5,298.5 C 632.833,300.5 633.167,302.5 633.5,304.5C 632.279,303.972 631.113,303.305 630,302.5C 629.902,300.381 629.069,298.714 627.5,297.5C 626.508,299.807 625.175,301.807 623.5,303.5C 623.66,301.801 623.494,300.134 623,298.5C 622,299.833 621,299.833 620,298.5C 619.206,295.529 618.539,292.529 618,289.5C 617.536,290.094 617.369,290.761 617.5,291.5C 616.002,288.664 615.669,285.664 616.5,282.5C 618.765,281.353 621.098,281.186 623.5,282C 624.219,284.556 625.886,285.723 628.5,285.5C 629.465,289.947 630.798,294.28 632.5,298.5 Z"/></g>
<g><path style="opacity:1" fill="#bd9740" d="M 711.5,289.5 C 709.801,289.34 708.134,289.506 706.5,290C 704.503,295.183 701.003,296.683 696,294.5C 695.322,292.402 695.489,290.402 696.5,288.5C 701.109,285.867 706.109,284.867 711.5,285.5C 711.5,286.833 711.5,288.167 711.5,289.5 Z"/></g>
<g><path style="opacity:0.667" fill="#cbc3a3" d="M 284.5,299.5 C 282.418,299.376 280.918,298.376 280,296.5C 279.329,297.252 278.496,297.586 277.5,297.5C 276.5,297.5 275.5,297.5 274.5,297.5C 272.833,297.5 271.167,297.5 269.5,297.5C 266.167,297.833 262.833,298.167 259.5,298.5C 259.47,297.503 259.97,296.836 261,296.5C 264.717,295.706 268.384,294.706 272,293.5C 275.117,294.539 278.284,295.373 281.5,296C 282.71,297.039 283.71,298.206 284.5,299.5 Z"/></g>
<g><path style="opacity:1" fill="#c9ab6c" d="M 696.5,288.5 C 695.489,290.402 695.322,292.402 696,294.5C 701.003,296.683 704.503,295.183 706.5,290C 708.134,289.506 709.801,289.34 711.5,289.5C 709.31,290.374 708.31,292.041 708.5,294.5C 707.5,294.5 706.5,294.5 705.5,294.5C 705.074,296.139 705.074,297.472 705.5,298.5C 705.5,299.167 705.167,299.5 704.5,299.5C 702.102,299.259 700.102,299.926 698.5,301.5C 695.822,300.166 693.155,298.833 690.5,297.5C 690.795,295.265 690.461,293.265 689.5,291.5C 689.833,290.5 690.5,289.833 691.5,289.5C 693.216,289.371 694.883,289.038 696.5,288.5 Z"/></g>
<g><path style="opacity:1" fill="#ebdbaa" d="M 663.5,280.5 C 663.201,282.604 663.534,284.604 664.5,286.5C 665.965,285.391 666.965,285.891 667.5,288C 669.382,288.198 671.048,288.698 672.5,289.5C 672.557,291.884 672.223,294.218 671.5,296.5C 667.969,304.456 664.303,312.122 660.5,319.5C 662.537,314.24 660.87,310.907 655.5,309.5C 657.617,307.637 657.951,305.47 656.5,303C 658.947,298.152 660.28,292.986 660.5,287.5C 660.179,284.423 661.179,282.09 663.5,280.5 Z"/></g>
<g><path style="opacity:1" fill="#bd9e5e" d="M 240.5,274.5 C 241.216,278.903 243.216,282.57 246.5,285.5C 246.669,287.912 246.003,290.079 244.5,292C 245.022,292.95 245.689,293.784 246.5,294.5C 244.942,296.991 243.942,299.657 243.5,302.5C 242.5,303.833 241.5,305.167 240.5,306.5C 239.791,307.404 238.791,307.737 237.5,307.5C 237.5,306.167 237.5,304.833 237.5,303.5C 238.5,303.5 239.5,303.5 240.5,303.5C 240.849,300.955 240.016,298.955 238,297.5C 237.336,290.459 237.669,283.459 239,276.5C 239.278,275.584 239.778,274.918 240.5,274.5 Z"/></g>
<g><path style="opacity:1" fill="#d6c77e" d="M 596.5,313.5 C 594.223,313.137 593.556,312.137 594.5,310.5C 592.81,307.976 590.643,305.976 588,304.5C 587.768,305.737 587.268,306.737 586.5,307.5C 586.334,302.489 586.501,297.489 587,292.5C 588.333,291.833 589.333,290.833 590,289.5C 591.734,291.451 593.901,292.451 596.5,292.5C 596.5,299.5 596.5,306.5 596.5,313.5 Z"/></g>
<g><path style="opacity:0.694" fill="#d9cd9e" d="M 598.5,351.5 C 593.167,351.5 587.833,351.5 582.5,351.5C 582.5,346.833 582.5,342.167 582.5,337.5C 582.5,336.167 583.167,335.5 584.5,335.5C 584.249,338.909 584.583,342.242 585.5,345.5C 587.396,346.466 589.396,346.799 591.5,346.5C 591.5,345.5 591.5,344.5 591.5,343.5C 592.822,343.33 593.989,343.663 595,344.5C 596.416,338.285 596.916,331.952 596.5,325.5C 596.5,321.5 596.5,317.5 596.5,313.5C 596.5,306.5 596.5,299.5 596.5,292.5C 593.901,292.451 591.734,291.451 590,289.5C 589.333,290.833 588.333,291.833 587,292.5C 586.501,297.489 586.334,302.489 586.5,307.5C 586.5,308.167 586.5,308.833 586.5,309.5C 585.833,309.167 585.167,308.833 584.5,308.5C 584.5,301.167 584.5,293.833 584.5,286.5C 584.261,284.533 584.594,282.699 585.5,281C 590.009,280.271 594.342,280.771 598.5,282.5C 598.5,305.5 598.5,328.5 598.5,351.5 Z"/></g>
<g><path style="opacity:1" fill="#bf9542" d="M 743.5,296.5 C 745.903,296.393 747.736,297.393 749,299.5C 749.687,301.555 750.854,303.221 752.5,304.5C 753.452,306.045 753.785,307.712 753.5,309.5C 749.37,309.466 745.37,308.799 741.5,307.5C 741.01,303.513 741.676,299.846 743.5,296.5 Z"/></g>
<g><path style="opacity:1" fill="#c6a468" d="M 401.5,297.5 C 401.5,301.167 401.5,304.833 401.5,308.5C 399.444,306.24 396.944,304.574 394,303.5C 391.552,303.699 389.719,304.699 388.5,306.5C 387.833,307.167 387.167,307.833 386.5,308.5C 386.5,303.833 386.5,299.167 386.5,294.5C 387.8,293.892 389.133,293.225 390.5,292.5C 392.373,292.482 392.706,292.982 391.5,294C 393.764,294.236 395.931,294.736 398,295.5C 398.414,295.043 398.914,294.709 399.5,294.5C 400.176,295.602 400.842,296.602 401.5,297.5 Z"/></g>
<g><path style="opacity:0.522" fill="#cfc7a5" d="M 584.5,286.5 C 584.5,293.833 584.5,301.167 584.5,308.5C 584.5,317.5 584.5,326.5 584.5,335.5C 583.167,335.5 582.5,336.167 582.5,337.5C 581.697,321.335 581.697,305.001 582.5,288.5C 582.833,287.5 583.5,286.833 584.5,286.5 Z"/></g>
<g><path style="opacity:1" fill="#e2d48b" d="M 210.5,273.5 C 210.915,275.747 211.582,277.914 212.5,280C 210.818,287.053 209.818,294.219 209.5,301.5C 209.57,302.772 209.903,303.938 210.5,305C 212.249,305.785 213.916,306.618 215.5,307.5C 216.048,309.532 217.381,310.532 219.5,310.5C 221.5,311.833 223.5,311.833 225.5,310.5C 226.167,310.5 226.833,310.5 227.5,310.5C 228.833,310.5 230.167,310.5 231.5,310.5C 229.721,312.344 227.388,313.01 224.5,312.5C 218.419,312.486 212.419,311.819 206.5,310.5C 205.508,310.672 204.842,310.338 204.5,309.5C 204.5,309.167 204.5,308.833 204.5,308.5C 205.822,308.67 206.989,308.337 208,307.5C 208.719,296.808 208.553,286.142 207.5,275.5C 207.868,274.09 208.701,273.09 210,272.5C 210.399,272.728 210.565,273.062 210.5,273.5 Z"/></g>
<g><path style="opacity:0.431" fill="#cbbfa1" d="M 298.5,327.5 C 300.179,327.715 301.179,327.048 301.5,325.5C 303.5,325.5 305.5,325.5 307.5,325.5C 307.5,324.5 307.5,323.5 307.5,322.5C 310.358,322.972 312.358,321.972 313.5,319.5C 315.167,319.5 316.833,319.5 318.5,319.5C 319.272,315.548 319.605,311.548 319.5,307.5C 317.005,306.801 314.672,305.801 312.5,304.5C 308.268,302.67 304.601,303.337 301.5,306.5C 300.167,306.833 298.833,307.167 297.5,307.5C 297.5,306.167 296.833,305.5 295.5,305.5C 299.393,302.748 303.727,300.748 308.5,299.5C 313.249,300.387 317.416,302.387 321,305.5C 322.771,319.28 316.771,327.28 303,329.5C 301.014,329.431 299.514,328.765 298.5,327.5 Z"/></g>
<g><path style="opacity:0.995" fill="#a18662" d="M 173.5,298.5 C 173.532,304.189 173.866,309.855 174.5,315.5C 172.126,312.626 170.126,309.626 168.5,306.5C 169.167,303.833 169.833,301.167 170.5,298.5C 171.5,298.5 172.5,298.5 173.5,298.5 Z"/></g>
<g><path style="opacity:0.357" fill="#c6baa4" d="M 191.5,297.5 C 191.867,301.025 193.2,304.025 195.5,306.5C 198.451,307.694 201.451,308.694 204.5,309.5C 204.842,310.338 205.508,310.672 206.5,310.5C 206.5,311.833 205.833,312.5 204.5,312.5C 201.366,311.527 198.366,310.193 195.5,308.5C 194.016,310.282 193.016,312.282 192.5,314.5C 191.799,310.713 191.132,306.88 190.5,303C 189.381,301.124 187.714,300.291 185.5,300.5C 184.406,294.906 181.072,293.073 175.5,295C 174.027,295.71 173.36,296.876 173.5,298.5C 172.5,298.5 171.5,298.5 170.5,298.5C 169.833,301.167 169.167,303.833 168.5,306.5C 167.041,297.857 170.708,292.524 179.5,290.5C 182.372,291.718 184.872,293.385 187,295.5C 187.167,295 187.333,294.5 187.5,294C 187.546,290.935 187.213,287.769 186.5,284.5C 184.032,286.069 181.366,287.069 178.5,287.5C 176.412,287.38 175.078,286.38 174.5,284.5C 177.791,286.182 180.457,285.515 182.5,282.5C 184.217,280.483 186.217,280.15 188.5,281.5C 188.866,287.229 189.866,292.563 191.5,297.5 Z"/></g>
<g><path style="opacity:0.875" fill="#b9a88c" d="M 257.5,294.5 C 257.67,295.822 257.337,296.989 256.5,298C 257.448,298.483 258.448,298.649 259.5,298.5C 259.443,299.609 259.11,300.609 258.5,301.5C 257.5,301.5 256.5,301.5 255.5,301.5C 255.226,303.981 253.893,305.647 251.5,306.5C 250.624,306.369 249.957,306.702 249.5,307.5C 247.392,312.007 245.392,316.507 243.5,321C 244.022,324.065 245.689,326.232 248.5,327.5C 251.251,328.104 253.584,329.438 255.5,331.5C 255.5,332.833 254.833,333.5 253.5,333.5C 243.343,332.465 239.51,326.798 242,316.5C 242.846,313.761 243.512,311.094 244,308.5C 242.587,309.912 240.92,310.912 239,311.5C 235.354,313.215 231.521,314.215 227.5,314.5C 226.5,313.833 225.5,313.167 224.5,312.5C 227.388,313.01 229.721,312.344 231.5,310.5C 233.784,309.971 235.784,308.971 237.5,307.5C 238.791,307.737 239.791,307.404 240.5,306.5C 244.413,305.197 248.079,303.364 251.5,301C 253.763,298.91 255.763,296.744 257.5,294.5 Z"/></g>
<g><path style="opacity:1" fill="#b48a4f" d="M 401.5,308.5 C 401.5,316.5 401.5,324.5 401.5,332.5C 400.662,332.842 400.328,333.508 400.5,334.5C 396.065,336.205 392.065,335.539 388.5,332.5C 387.833,332.5 387.167,332.5 386.5,332.5C 386.5,328.5 386.5,324.5 386.5,320.5C 387.29,321.609 387.79,322.942 388,324.5C 390.136,320.761 392.303,320.928 394.5,325C 396.473,325.495 398.473,325.662 400.5,325.5C 400.888,320.372 400.388,315.372 399,310.5C 396.667,309.833 394.333,309.167 392,308.5C 389.851,309.84 388.684,309.173 388.5,306.5C 389.719,304.699 391.552,303.699 394,303.5C 396.944,304.574 399.444,306.24 401.5,308.5 Z"/></g>
<g><path style="opacity:1" fill="#e9dd90" d="M 545.5,297.5 C 545.649,298.552 545.483,299.552 545,300.5C 539.747,303.547 538.914,307.214 542.5,311.5C 542,312.5 541.5,313.5 541,314.5C 539.676,312.5 538.009,310.833 536,309.5C 535.667,309.833 535.333,310.167 535,310.5C 534.505,308.527 534.338,306.527 534.5,304.5C 535.419,299.313 535.753,294.146 535.5,289C 535.833,288.833 536.167,288.667 536.5,288.5C 537.251,289.376 537.751,290.376 538,291.5C 538.423,290.044 539.256,289.544 540.5,290C 542.823,292.17 544.49,294.67 545.5,297.5 Z"/></g>
<g><path style="opacity:1" fill="#f5e7ba" d="M 690.5,297.5 C 693.155,298.833 695.822,300.166 698.5,301.5C 699.473,303.948 699.806,306.615 699.5,309.5C 708.5,309.5 717.5,309.5 726.5,309.5C 721.438,310.369 721.438,311.869 726.5,314C 725.552,314.483 724.552,314.649 723.5,314.5C 720.357,313.793 717.357,312.627 714.5,311C 711.518,310.502 708.518,310.335 705.5,310.5C 705.5,311.833 705.5,313.167 705.5,314.5C 703.436,314.313 701.436,313.813 699.5,313C 700.308,312.692 700.975,312.192 701.5,311.5C 699.955,310.548 698.288,310.215 696.5,310.5C 696.5,309.5 696.5,308.5 696.5,307.5C 693.518,307.963 690.518,308.296 687.5,308.5C 687.737,307.209 687.404,306.209 686.5,305.5C 687.369,303.283 687.702,300.95 687.5,298.5C 688.791,298.737 689.791,298.404 690.5,297.5 Z"/></g>
<g><path style="opacity:0.671" fill="#d9d4ba" d="M 704.5,299.5 C 703.971,301.583 702.971,303.417 701.5,305C 702.872,305.402 704.205,305.902 705.5,306.5C 716.049,305.908 726.716,305.575 737.5,305.5C 737.5,304.167 737.5,302.833 737.5,301.5C 738.167,301.5 738.833,301.5 739.5,301.5C 739.5,304.167 739.5,306.833 739.5,309.5C 735.167,309.5 730.833,309.5 726.5,309.5C 717.5,309.5 708.5,309.5 699.5,309.5C 699.806,306.615 699.473,303.948 698.5,301.5C 700.102,299.926 702.102,299.259 704.5,299.5 Z"/></g>
<g><path style="opacity:1" fill="#f2e8a4" d="M 505.5,294.5 C 506.8,296.987 507.8,298.987 508.5,300.5C 509.117,300.611 509.617,300.944 510,301.5C 510.499,305.821 510.666,310.154 510.5,314.5C 510.5,316.167 510.5,317.833 510.5,319.5C 508.952,319.821 508.285,320.821 508.5,322.5C 505.167,322.5 501.833,322.5 498.5,322.5C 498.975,319.918 498.308,317.918 496.5,316.5C 496.623,309.471 496.29,302.471 495.5,295.5C 497.201,295.966 498.701,295.966 500,295.5C 501.516,298.051 502.349,297.718 502.5,294.5C 503.5,294.5 504.5,294.5 505.5,294.5 Z"/></g>
<g><path style="opacity:1" fill="#c7b173" d="M 192.5,314.5 C 192.5,314.833 192.5,315.167 192.5,315.5C 190.236,316.219 187.903,316.552 185.5,316.5C 185.5,317.5 185.5,318.5 185.5,319.5C 184.5,319.5 183.5,319.5 182.5,319.5C 184.082,311.739 183.749,304.072 181.5,296.5C 180.311,295.571 178.978,295.238 177.5,295.5C 177.749,301.909 177.749,308.243 177.5,314.5C 178.547,316.056 179.214,317.723 179.5,319.5C 177.52,318.516 175.853,317.183 174.5,315.5C 173.866,309.855 173.532,304.189 173.5,298.5C 173.36,296.876 174.027,295.71 175.5,295C 181.072,293.073 184.406,294.906 185.5,300.5C 187.714,300.291 189.381,301.124 190.5,303C 191.132,306.88 191.799,310.713 192.5,314.5 Z"/></g>
<g><path style="opacity:1" fill="#b89856" d="M 274.5,297.5 C 275.5,297.5 276.5,297.5 277.5,297.5C 278.144,300.804 280.144,302.138 283.5,301.5C 284.329,304.469 284.495,307.469 284,310.5C 283.009,311.939 281.676,312.939 280,313.5C 279.667,315.5 279.333,317.5 279,319.5C 278.617,320.056 278.117,320.389 277.5,320.5C 276.5,321.167 275.5,321.833 274.5,322.5C 273.916,314.377 273.916,306.043 274.5,297.5 Z"/></g>
<g><path style="opacity:1" fill="#e8dca6" d="M 686.5,305.5 C 687.404,306.209 687.737,307.209 687.5,308.5C 690.518,308.296 693.518,307.963 696.5,307.5C 696.5,308.5 696.5,309.5 696.5,310.5C 698.288,310.215 699.955,310.548 701.5,311.5C 700.975,312.192 700.308,312.692 699.5,313C 701.436,313.813 703.436,314.313 705.5,314.5C 707.196,314.685 708.529,315.519 709.5,317C 706.833,317.333 704.167,317.667 701.5,318C 700.944,318.383 700.611,318.883 700.5,319.5C 700.167,319.5 699.833,319.5 699.5,319.5C 699.5,318.5 699.5,317.5 699.5,316.5C 698.5,316.5 697.5,316.5 696.5,316.5C 696.649,315.448 696.483,314.448 696,313.5C 695.196,314.804 694.029,315.471 692.5,315.5C 691.136,314.957 689.803,314.79 688.5,315C 687.556,317.719 687.223,320.552 687.5,323.5C 686.51,317.69 686.177,311.69 686.5,305.5 Z"/></g>
<g><path style="opacity:1" fill="#f5e3b4" d="M 726.5,309.5 C 730.833,309.5 735.167,309.5 739.5,309.5C 741.176,310.183 741.843,311.517 741.5,313.5C 745.931,313.769 750.265,313.436 754.5,312.5C 754.5,313.167 754.5,313.833 754.5,314.5C 751.737,315.987 748.737,316.654 745.5,316.5C 740.317,315.439 735.15,315.439 730,316.5C 727.516,316.503 725.349,315.837 723.5,314.5C 724.552,314.649 725.552,314.483 726.5,314C 721.438,311.869 721.438,310.369 726.5,309.5 Z"/></g>
<g><path style="opacity:0.988" fill="#9c8657" d="M 312.5,304.5 C 314.672,305.801 317.005,306.801 319.5,307.5C 319.605,311.548 319.272,315.548 318.5,319.5C 316.833,319.5 315.167,319.5 313.5,319.5C 313.779,314.405 313.445,309.405 312.5,304.5 Z"/></g>
<g><path style="opacity:1" fill="#d7c881" d="M 633.5,304.5 C 635.413,308.439 637.08,312.439 638.5,316.5C 638.39,320 637.557,323.334 636,326.5C 635.503,324.19 635.337,321.857 635.5,319.5C 633.388,320.275 631.388,320.275 629.5,319.5C 626.533,314.607 624.533,309.273 623.5,303.5C 625.175,301.807 626.508,299.807 627.5,297.5C 629.069,298.714 629.902,300.381 630,302.5C 631.113,303.305 632.279,303.972 633.5,304.5 Z"/></g>
<g><path style="opacity:1" fill="#f0e4ba" d="M 723.5,314.5 C 725.349,315.837 727.516,316.503 730,316.5C 735.15,315.439 740.317,315.439 745.5,316.5C 748.737,316.654 751.737,315.987 754.5,314.5C 754.5,316.167 754.5,317.833 754.5,319.5C 736.5,319.5 718.5,319.5 700.5,319.5C 700.611,318.883 700.944,318.383 701.5,318C 704.167,317.667 706.833,317.333 709.5,317C 708.529,315.519 707.196,314.685 705.5,314.5C 705.5,313.167 705.5,311.833 705.5,310.5C 708.518,310.335 711.518,310.502 714.5,311C 717.357,312.627 720.357,313.793 723.5,314.5 Z"/></g>
<g><path style="opacity:1" fill="#cfb170" d="M 459.5,309.5 C 459.5,311.833 459.5,314.167 459.5,316.5C 459.573,318.027 458.906,319.027 457.5,319.5C 457.539,318.244 457.039,317.244 456,316.5C 452.905,317.395 449.738,317.395 446.5,316.5C 446.5,315.5 446.5,314.5 446.5,313.5C 446.5,312.167 446.5,310.833 446.5,309.5C 447.911,308.092 449.577,307.092 451.5,306.5C 454.374,307.122 457.04,308.122 459.5,309.5 Z"/></g>
<g><path style="opacity:1" fill="#f5eca9" d="M 545.5,297.5 C 546.167,297.5 546.833,297.5 547.5,297.5C 547.246,300.014 546.413,302.348 545,304.5C 544.5,311.492 544.334,318.492 544.5,325.5C 539.353,325.753 535.02,324.087 531.5,320.5C 531.5,315.167 531.5,309.833 531.5,304.5C 532.652,303.375 533.652,303.375 534.5,304.5C 534.338,306.527 534.505,308.527 535,310.5C 535.333,310.167 535.667,309.833 536,309.5C 538.009,310.833 539.676,312.5 541,314.5C 541.5,313.5 542,312.5 542.5,311.5C 538.914,307.214 539.747,303.547 545,300.5C 545.483,299.552 545.649,298.552 545.5,297.5 Z"/></g>
<g><path style="opacity:1" fill="#ecdc8e" d="M 182.5,319.5 C 181.5,319.5 180.5,319.5 179.5,319.5C 179.214,317.723 178.547,316.056 177.5,314.5C 177.749,308.243 177.749,301.909 177.5,295.5C 178.978,295.238 180.311,295.571 181.5,296.5C 183.749,304.072 184.082,311.739 182.5,319.5 Z"/></g>
<g><path style="opacity:1" fill="#d9c87c" d="M 269.5,297.5 C 271.167,297.5 272.833,297.5 274.5,297.5C 273.916,306.043 273.916,314.377 274.5,322.5C 274.068,323.71 273.401,324.71 272.5,325.5C 270.883,326.038 269.216,326.371 267.5,326.5C 267.799,319.109 267.465,311.776 266.5,304.5C 267.687,303.481 268.687,302.314 269.5,301C 268.316,299.855 268.316,298.688 269.5,297.5 Z"/></g>
<g><path style="opacity:0.89" fill="#9d8665" d="M 284.5,299.5 C 285.338,299.842 285.672,300.508 285.5,301.5C 287.233,309.967 284.899,316.967 278.5,322.5C 277.702,322.043 277.369,321.376 277.5,320.5C 278.117,320.389 278.617,320.056 279,319.5C 279.333,317.5 279.667,315.5 280,313.5C 281.676,312.939 283.009,311.939 284,310.5C 284.495,307.469 284.329,304.469 283.5,301.5C 280.144,302.138 278.144,300.804 277.5,297.5C 278.496,297.586 279.329,297.252 280,296.5C 280.918,298.376 282.418,299.376 284.5,299.5 Z"/></g>
<g><path style="opacity:0.274" fill="#ccc3ac" d="M 386.5,256.5 C 386.5,266.5 386.5,276.5 386.5,286.5C 386.5,289.167 386.5,291.833 386.5,294.5C 386.5,299.167 386.5,303.833 386.5,308.5C 386.5,312.5 386.5,316.5 386.5,320.5C 386.5,324.5 386.5,328.5 386.5,332.5C 386.5,338.167 386.5,343.833 386.5,349.5C 386.5,350.167 386.5,350.833 386.5,351.5C 384.507,320.518 383.841,289.184 384.5,257.5C 385.167,257.167 385.833,256.833 386.5,256.5 Z"/></g>
<g><path style="opacity:0.918" fill="#d3cca6" d="M 660.5,287.5 C 660.28,292.986 658.947,298.152 656.5,303C 657.951,305.47 657.617,307.637 655.5,309.5C 653.522,313.703 651.689,318.037 650,322.5C 647.695,324.022 646.195,326.022 645.5,328.5C 642.876,324.671 640.542,320.671 638.5,316.5C 637.08,312.439 635.413,308.439 633.5,304.5C 633.167,302.5 632.833,300.5 632.5,298.5C 633.167,298.5 633.833,298.5 634.5,298.5C 638.268,306.275 641.768,314.275 645,322.5C 650.177,311.823 654.677,300.823 658.5,289.5C 658.747,288.287 659.414,287.62 660.5,287.5 Z"/></g>
<g><path style="opacity:0.743" fill="#d7d2b4" d="M 689.5,291.5 C 690.461,293.265 690.795,295.265 690.5,297.5C 689.791,298.404 688.791,298.737 687.5,298.5C 687.702,300.95 687.369,303.283 686.5,305.5C 686.177,311.69 686.51,317.69 687.5,323.5C 687.5,326.833 687.5,330.167 687.5,333.5C 686.883,333.389 686.383,333.056 686,332.5C 685.196,326.267 684.03,320.101 682.5,314C 683.925,308.64 685.092,303.14 686,297.5C 687.459,295.568 688.625,293.568 689.5,291.5 Z"/></g>
<g><path style="opacity:1" fill="#ccb16e" d="M 258.5,301.5 C 257.108,303.557 256.441,305.891 256.5,308.5C 258.138,316.073 258.805,323.74 258.5,331.5C 257.5,331.5 256.5,331.5 255.5,331.5C 253.584,329.438 251.251,328.104 248.5,327.5C 250.708,326.977 252.208,325.644 253,323.5C 253.686,317.696 253.186,312.029 251.5,306.5C 253.893,305.647 255.226,303.981 255.5,301.5C 256.5,301.5 257.5,301.5 258.5,301.5 Z"/></g>
<g><path style="opacity:0.282" fill="#d6cdb0" d="M 662.5,325.5 C 661.5,325.5 660.5,325.5 659.5,325.5C 659.833,323.5 660.167,321.5 660.5,319.5C 664.303,312.122 667.969,304.456 671.5,296.5C 672.223,294.218 672.557,291.884 672.5,289.5C 673.496,289.586 674.329,289.252 675,288.5C 676.61,286.061 677.444,283.394 677.5,280.5C 672.787,279.291 668.121,279.291 663.5,280.5C 663.5,279.5 663.5,278.5 663.5,277.5C 669.167,277.5 674.833,277.5 680.5,277.5C 679.971,282.748 678.637,287.748 676.5,292.5C 671.04,303.229 666.373,314.229 662.5,325.5 Z"/></g>
<g><path style="opacity:0.761" fill="#cdc3a6" d="M 206.5,310.5 C 212.419,311.819 218.419,312.486 224.5,312.5C 225.5,313.167 226.5,313.833 227.5,314.5C 227.082,315.222 226.416,315.722 225.5,316C 233.587,319.086 237.087,324.92 236,333.5C 235.764,335.119 234.931,336.119 233.5,336.5C 234.402,332.459 234.402,328.459 233.5,324.5C 230.94,321.918 227.94,320.251 224.5,319.5C 223.5,319.5 222.5,319.5 221.5,319.5C 219.981,318.59 218.315,317.757 216.5,317C 212.312,316.824 208.312,316.324 204.5,315.5C 205.833,314.5 205.833,313.5 204.5,312.5C 205.833,312.5 206.5,311.833 206.5,310.5 Z"/></g>
<g><path style="opacity:0.622" fill="#ccc498" d="M 529.5,279.5 C 530.492,279.328 531.158,279.662 531.5,280.5C 531.5,288.5 531.5,296.5 531.5,304.5C 531.5,309.833 531.5,315.167 531.5,320.5C 531.613,325.518 531.947,330.518 532.5,335.5C 532.167,335.5 531.833,335.5 531.5,335.5C 530.833,335.5 530.167,335.5 529.5,335.5C 529.5,316.833 529.5,298.167 529.5,279.5 Z"/></g>
<g><path style="opacity:0.353" fill="#d7d0b9" d="M 553.5,295.5 C 550.139,299.605 547.972,304.272 547,309.5C 547.153,323.869 546.32,337.869 544.5,351.5C 544.5,349.167 544.5,346.833 544.5,344.5C 544.5,340.5 544.5,336.5 544.5,332.5C 544.5,330.167 544.5,327.833 544.5,325.5C 544.334,318.492 544.5,311.492 545,304.5C 546.413,302.348 547.246,300.014 547.5,297.5C 549.5,296.833 551.5,296.167 553.5,295.5 Z"/></g>
<g><path style="opacity:0.388" fill="#c5bca4" d="M 168.5,306.5 C 170.126,309.626 172.126,312.626 174.5,315.5C 175.853,317.183 177.52,318.516 179.5,319.5C 180.5,319.5 181.5,319.5 182.5,319.5C 183.5,319.5 184.5,319.5 185.5,319.5C 185.5,318.5 185.5,317.5 185.5,316.5C 187.903,316.552 190.236,316.219 192.5,315.5C 190.154,319.749 186.654,322.415 182,323.5C 180.416,322.139 178.582,321.472 176.5,321.5C 176.158,320.662 175.492,320.328 174.5,320.5C 173.134,317.263 171.3,314.263 169,311.5C 168.506,309.866 168.34,308.199 168.5,306.5 Z"/></g>
<g><path style="opacity:0.157" fill="#c7baa6" d="M 401.5,293.5 C 402.167,296.5 402.833,299.5 403.5,302.5C 403.5,318.833 403.5,335.167 403.5,351.5C 397.833,351.5 392.167,351.5 386.5,351.5C 386.5,350.833 386.5,350.167 386.5,349.5C 391.5,349.5 396.5,349.5 401.5,349.5C 401.5,343.833 401.5,338.167 401.5,332.5C 401.5,324.5 401.5,316.5 401.5,308.5C 401.5,304.833 401.5,301.167 401.5,297.5C 401.5,296.167 401.5,294.833 401.5,293.5 Z"/></g>
<g><path style="opacity:1" fill="#ece197" d="M 596.5,313.5 C 596.5,317.5 596.5,321.5 596.5,325.5C 595.735,326.66 594.735,327.66 593.5,328.5C 592.5,327.167 591.5,327.167 590.5,328.5C 589.719,327.263 588.719,326.263 587.5,325.5C 586.505,320.208 586.172,314.875 586.5,309.5C 586.5,308.833 586.5,308.167 586.5,307.5C 587.268,306.737 587.768,305.737 588,304.5C 590.643,305.976 592.81,307.976 594.5,310.5C 593.556,312.137 594.223,313.137 596.5,313.5 Z"/></g>
<g><path style="opacity:0.251" fill="#cbc4ac" d="M 750.5,291.5 C 751.79,292.058 752.623,293.058 753,294.5C 754.993,299.495 756.827,304.495 758.5,309.5C 756.656,313.217 755.989,317.217 756.5,321.5C 738.155,321.167 719.821,321.5 701.5,322.5C 702.883,324.32 703.883,326.32 704.5,328.5C 700.47,327.494 698.803,324.827 699.5,320.5C 699.5,320.167 699.5,319.833 699.5,319.5C 699.833,319.5 700.167,319.5 700.5,319.5C 718.5,319.5 736.5,319.5 754.5,319.5C 754.5,317.833 754.5,316.167 754.5,314.5C 754.5,313.833 754.5,313.167 754.5,312.5C 755.327,306.836 753.994,301.836 750.5,297.5C 750.5,295.5 750.5,293.5 750.5,291.5 Z"/></g>
<g><path style="opacity:1" fill="#a17238" d="M 388.5,306.5 C 388.684,309.173 389.851,309.84 392,308.5C 394.333,309.167 396.667,309.833 399,310.5C 400.388,315.372 400.888,320.372 400.5,325.5C 398.473,325.662 396.473,325.495 394.5,325C 392.303,320.928 390.136,320.761 388,324.5C 387.79,322.942 387.29,321.609 386.5,320.5C 386.5,316.5 386.5,312.5 386.5,308.5C 387.167,307.833 387.833,307.167 388.5,306.5 Z"/></g>
<g><path style="opacity:1" fill="#ac894a" d="M 251.5,306.5 C 253.186,312.029 253.686,317.696 253,323.5C 252.208,325.644 250.708,326.977 248.5,327.5C 245.689,326.232 244.022,324.065 243.5,321C 245.392,316.507 247.392,312.007 249.5,307.5C 249.957,306.702 250.624,306.369 251.5,306.5 Z"/></g>
<g><path style="opacity:1" fill="#e7db8f" d="M 269.5,297.5 C 268.316,298.688 268.316,299.855 269.5,301C 268.687,302.314 267.687,303.481 266.5,304.5C 267.465,311.776 267.799,319.109 267.5,326.5C 269.216,326.371 270.883,326.038 272.5,325.5C 269.166,330.395 264.499,332.395 258.5,331.5C 258.805,323.74 258.138,316.073 256.5,308.5C 256.441,305.891 257.108,303.557 258.5,301.5C 259.11,300.609 259.443,299.609 259.5,298.5C 262.833,298.167 266.167,297.833 269.5,297.5 Z"/></g>
<g><path style="opacity:1" fill="#bda264" d="M 301.5,306.5 C 300.542,312.744 300.209,319.077 300.5,325.5C 298.988,323.683 296.988,322.683 294.5,322.5C 294.523,320.4 293.856,318.567 292.5,317C 294.535,314.018 296.202,310.851 297.5,307.5C 298.833,307.167 300.167,306.833 301.5,306.5 Z"/></g>
<g><path style="opacity:1" fill="#e2ce82" d="M 312.5,304.5 C 313.445,309.405 313.779,314.405 313.5,319.5C 312.358,321.972 310.358,322.972 307.5,322.5C 307.5,323.5 307.5,324.5 307.5,325.5C 305.5,325.5 303.5,325.5 301.5,325.5C 301.167,325.5 300.833,325.5 300.5,325.5C 300.209,319.077 300.542,312.744 301.5,306.5C 304.601,303.337 308.268,302.67 312.5,304.5 Z"/></g>
<g><path style="opacity:0.435" fill="#b6a688" d="M 295.5,305.5 C 296.833,305.5 297.5,306.167 297.5,307.5C 296.202,310.851 294.535,314.018 292.5,317C 293.856,318.567 294.523,320.4 294.5,322.5C 296.988,322.683 298.988,323.683 300.5,325.5C 300.833,325.5 301.167,325.5 301.5,325.5C 301.179,327.048 300.179,327.715 298.5,327.5C 290.106,325.561 287.44,320.394 290.5,312C 291.734,309.322 293.4,307.155 295.5,305.5 Z"/></g>
<g><path style="opacity:1" fill="#cbb26c" d="M 221.5,319.5 C 222.5,319.5 223.5,319.5 224.5,319.5C 225.028,320.721 225.695,321.887 226.5,323C 225.735,328.244 225.402,333.411 225.5,338.5C 223.5,338.5 221.5,338.5 219.5,338.5C 219.315,336.804 218.481,335.471 217,334.5C 216.501,329.511 216.334,324.511 216.5,319.5C 218.167,319.5 219.833,319.5 221.5,319.5 Z"/></g>
<g><path style="opacity:0.231" fill="#c2b89c" d="M 174.5,320.5 C 174.842,321.338 175.508,321.672 176.5,321.5C 178.002,324.505 179.502,327.505 181,330.5C 181.453,338.048 177.953,341.548 170.5,341C 162.955,335.498 161.622,328.831 166.5,321C 169.146,320.503 171.813,320.336 174.5,320.5 Z"/></g>
<g><path style="opacity:0.009" fill="#fffef2" d="M 192.5,324.5 C 192.5,326.5 192.5,328.5 192.5,330.5C 189.833,328.5 189.833,326.5 192.5,324.5 Z"/></g>
<g><path style="opacity:1" fill="#d8c987" d="M 699.5,319.5 C 699.5,319.833 699.5,320.167 699.5,320.5C 698.244,320.461 697.244,320.961 696.5,322C 697.795,325.107 698.795,328.274 699.5,331.5C 697.882,329.215 695.882,327.215 693.5,325.5C 691.192,324.052 689.859,324.718 689.5,327.5C 690.51,330.183 691.51,332.849 692.5,335.5C 691.18,334.058 689.514,333.392 687.5,333.5C 687.5,330.167 687.5,326.833 687.5,323.5C 687.223,320.552 687.556,317.719 688.5,315C 689.803,314.79 691.136,314.957 692.5,315.5C 694.029,315.471 695.196,314.804 696,313.5C 696.483,314.448 696.649,315.448 696.5,316.5C 697.5,316.5 698.5,316.5 699.5,316.5C 699.5,317.5 699.5,318.5 699.5,319.5 Z"/></g>
<g><path style="opacity:0.714" fill="#cfc5a8" d="M 285.5,301.5 C 286.117,301.611 286.617,301.944 287,302.5C 287.73,316.631 281.563,326.631 268.5,332.5C 264.296,332.951 260.296,333.951 256.5,335.5C 254.962,335.547 253.962,334.88 253.5,333.5C 254.833,333.5 255.5,332.833 255.5,331.5C 256.5,331.5 257.5,331.5 258.5,331.5C 264.499,332.395 269.166,330.395 272.5,325.5C 273.401,324.71 274.068,323.71 274.5,322.5C 275.5,321.833 276.5,321.167 277.5,320.5C 277.369,321.376 277.702,322.043 278.5,322.5C 284.899,316.967 287.233,309.967 285.5,301.5 Z"/></g>
<g><path style="opacity:1" fill="#cbad71" d="M 496.5,316.5 C 498.308,317.918 498.975,319.918 498.5,322.5C 501.833,322.5 505.167,322.5 508.5,322.5C 508.285,320.821 508.952,319.821 510.5,319.5C 510.967,324.411 510.3,329.078 508.5,333.5C 509.894,335.646 510.56,337.979 510.5,340.5C 507.667,336.435 503.667,334.435 498.5,334.5C 498.946,331.99 498.28,329.99 496.5,328.5C 496.5,324.5 496.5,320.5 496.5,316.5 Z"/></g>
<g><path style="opacity:1" fill="#c7ac68" d="M 203.5,319.5 C 206.841,318.843 208.841,320.176 209.5,323.5C 210.493,328.12 210.827,332.786 210.5,337.5C 209.167,337.5 207.833,337.5 206.5,337.5C 197.444,336.4 194.111,331.4 196.5,322.5C 198.996,321.749 201.33,320.749 203.5,319.5 Z"/></g>
<g><path style="opacity:1" fill="#dfcb89" d="M 531.5,320.5 C 535.02,324.087 539.353,325.753 544.5,325.5C 544.5,327.833 544.5,330.167 544.5,332.5C 543.842,333.398 543.176,334.398 542.5,335.5C 539.255,335.026 535.921,335.026 532.5,335.5C 531.947,330.518 531.613,325.518 531.5,320.5 Z"/></g>
<g><path style="opacity:1" fill="#f2e7a4" d="M 584.5,308.5 C 585.167,308.833 585.833,309.167 586.5,309.5C 586.172,314.875 586.505,320.208 587.5,325.5C 588.719,326.263 589.719,327.263 590.5,328.5C 591.5,327.167 592.5,327.167 593.5,328.5C 594.735,327.66 595.735,326.66 596.5,325.5C 596.916,331.952 596.416,338.285 595,344.5C 593.989,343.663 592.822,343.33 591.5,343.5C 591.5,344.5 591.5,345.5 591.5,346.5C 589.396,346.799 587.396,346.466 585.5,345.5C 584.583,342.242 584.249,338.909 584.5,335.5C 584.5,326.5 584.5,317.5 584.5,308.5 Z"/></g>
<g><path style="opacity:1" fill="#ddce89" d="M 655.5,309.5 C 660.87,310.907 662.537,314.24 660.5,319.5C 660.167,321.5 659.833,323.5 659.5,325.5C 660.5,325.5 661.5,325.5 662.5,325.5C 662.5,326.167 662.167,326.5 661.5,326.5C 660.417,326.539 659.417,326.873 658.5,327.5C 656.975,330.048 655.308,332.381 653.5,334.5C 651.567,334.271 649.9,333.438 648.5,332C 649.15,330.391 648.65,328.891 647,327.5C 646.617,328.056 646.117,328.389 645.5,328.5C 646.195,326.022 647.695,324.022 650,322.5C 651.689,318.037 653.522,313.703 655.5,309.5 Z"/></g>
<g><path style="opacity:1" fill="#d7c77d" d="M 699.5,331.5 C 701.564,331.762 702.897,332.929 703.5,335C 705.025,336.009 706.692,336.509 708.5,336.5C 708.5,337.833 708.5,339.167 708.5,340.5C 703.663,341.057 699.663,339.557 696.5,336C 695.207,335.51 693.873,335.343 692.5,335.5C 691.51,332.849 690.51,330.183 689.5,327.5C 689.859,324.718 691.192,324.052 693.5,325.5C 695.882,327.215 697.882,329.215 699.5,331.5 Z"/></g>
<g><path style="opacity:1" fill="#dfca87" d="M 170.5,322.5 C 173.645,323.077 175.145,325.077 175,328.5C 175.85,332.052 175.35,335.385 173.5,338.5C 168.244,335.314 166.244,330.647 167.5,324.5C 169.179,324.715 170.179,324.048 170.5,322.5 Z"/></g>
<g><path style="opacity:1" fill="#a88951" d="M 224.5,319.5 C 227.94,320.251 230.94,321.918 233.5,324.5C 234.402,328.459 234.402,332.459 233.5,336.5C 231.072,337.212 228.739,338.212 226.5,339.5C 225.893,339.376 225.56,339.043 225.5,338.5C 225.402,333.411 225.735,328.244 226.5,323C 225.695,321.887 225.028,320.721 224.5,319.5 Z"/></g>
<g><path style="opacity:1" fill="#e5d894" d="M 638.5,316.5 C 640.542,320.671 642.876,324.671 645.5,328.5C 644.811,329.774 643.977,329.774 643,328.5C 643.218,330.587 643.051,332.587 642.5,334.5C 641.572,332.665 640.406,332.332 639,333.5C 638.29,332.027 637.124,331.36 635.5,331.5C 635.5,332.5 635.5,333.5 635.5,334.5C 634.503,334.53 633.836,334.03 633.5,333C 631.565,328.665 630.232,324.165 629.5,319.5C 631.388,320.275 633.388,320.275 635.5,319.5C 635.337,321.857 635.503,324.19 636,326.5C 637.557,323.334 638.39,320 638.5,316.5 Z"/></g>
<g><path style="opacity:1" fill="#f0e59d" d="M 653.5,334.5 C 651.91,338.354 650.243,342.187 648.5,346C 645.854,346.497 643.187,346.664 640.5,346.5C 640.631,341.625 638.964,337.625 635.5,334.5C 635.5,333.5 635.5,332.5 635.5,331.5C 637.124,331.36 638.29,332.027 639,333.5C 640.406,332.332 641.572,332.665 642.5,334.5C 643.051,332.587 643.218,330.587 643,328.5C 643.977,329.774 644.811,329.774 645.5,328.5C 646.117,328.389 646.617,328.056 647,327.5C 648.65,328.891 649.15,330.391 648.5,332C 649.9,333.438 651.567,334.271 653.5,334.5 Z"/></g>
<g><path style="opacity:1" fill="#d0c8a9" d="M 744.5,347.5 C 744.5,346.167 744.5,344.833 744.5,343.5C 745.828,342.493 746.828,341.16 747.5,339.5C 745.151,337.374 742.651,335.374 740,333.5C 737.382,334.454 735.382,336.12 734,338.5C 726.613,340.444 719.113,340.944 711.5,340C 710.62,338.644 710.286,337.144 710.5,335.5C 714.342,336.043 718.009,337.043 721.5,338.5C 724.419,337.36 727.419,336.527 730.5,336C 733.999,333.661 737.332,331.161 740.5,328.5C 743.813,330.979 746.98,333.645 750,336.5C 751.112,341.574 749.279,345.241 744.5,347.5 Z"/></g>
<g><path style="opacity:1" fill="#e7dc94" d="M 204.5,315.5 C 208.312,316.324 212.312,316.824 216.5,317C 218.315,317.757 219.981,318.59 221.5,319.5C 219.833,319.5 218.167,319.5 216.5,319.5C 216.334,324.511 216.501,329.511 217,334.5C 218.481,335.471 219.315,336.804 219.5,338.5C 215.779,340.65 211.779,340.984 207.5,339.5C 207.137,338.817 206.804,338.15 206.5,337.5C 207.833,337.5 209.167,337.5 210.5,337.5C 210.827,332.786 210.493,328.12 209.5,323.5C 208.841,320.176 206.841,318.843 203.5,319.5C 202.448,317.744 200.781,317.077 198.5,317.5C 199.99,315.72 201.99,315.054 204.5,315.5 Z"/></g>
<g><path style="opacity:0.996" fill="#e8e1b3" d="M 661.5,326.5 C 659.828,330.556 658.161,334.556 656.5,338.5C 655.5,338.5 654.5,338.5 653.5,338.5C 652.65,346.042 648.65,349.375 641.5,348.5C 638.463,344.278 636.463,339.612 635.5,334.5C 638.964,337.625 640.631,341.625 640.5,346.5C 643.187,346.664 645.854,346.497 648.5,346C 650.243,342.187 651.91,338.354 653.5,334.5C 655.308,332.381 656.975,330.048 658.5,327.5C 659.417,326.873 660.417,326.539 661.5,326.5 Z"/></g>
<g><path style="opacity:1" fill="#c4a462" d="M 544.5,332.5 C 544.5,336.5 544.5,340.5 544.5,344.5C 543.265,344.721 542.265,345.388 541.5,346.5C 540.751,344.988 539.584,343.988 538,343.5C 535.991,343.995 533.824,343.995 531.5,343.5C 531.5,340.833 531.5,338.167 531.5,335.5C 531.833,335.5 532.167,335.5 532.5,335.5C 535.921,335.026 539.255,335.026 542.5,335.5C 543.176,334.398 543.842,333.398 544.5,332.5 Z"/></g>
<g><path style="opacity:0.451" fill="#b8aa8e" d="M 198.5,317.5 C 200.781,317.077 202.448,317.744 203.5,319.5C 201.33,320.749 198.996,321.749 196.5,322.5C 194.111,331.4 197.444,336.4 206.5,337.5C 206.804,338.15 207.137,338.817 207.5,339.5C 211.779,340.984 215.779,340.65 219.5,338.5C 221.5,338.5 223.5,338.5 225.5,338.5C 225.56,339.043 225.893,339.376 226.5,339.5C 228.739,338.212 231.072,337.212 233.5,336.5C 233.586,337.496 233.252,338.329 232.5,339C 230.275,339.561 228.275,340.561 226.5,342C 222.309,342.074 218.309,342.907 214.5,344.5C 208.256,343.017 202.256,340.851 196.5,338C 193.756,336.277 192.422,333.777 192.5,330.5C 192.5,328.5 192.5,326.5 192.5,324.5C 192.238,323.022 192.571,321.689 193.5,320.5C 194.695,318.703 196.362,317.703 198.5,317.5 Z"/></g>
<g><path style="opacity:0.6" fill="#d5d1b2" d="M 623.5,303.5 C 624.533,309.273 626.533,314.607 629.5,319.5C 630.232,324.165 631.565,328.665 633.5,333C 633.836,334.03 634.503,334.53 635.5,334.5C 636.463,339.612 638.463,344.278 641.5,348.5C 648.65,349.375 652.65,346.042 653.5,338.5C 654.5,338.5 655.5,338.5 656.5,338.5C 655.389,342.724 653.722,346.724 651.5,350.5C 647.5,351.833 643.5,351.833 639.5,350.5C 631.981,333.406 624.314,316.406 616.5,299.5C 617.695,299.134 618.361,298.301 618.5,297C 617.767,295.234 617.433,293.401 617.5,291.5C 617.369,290.761 617.536,290.094 618,289.5C 618.539,292.529 619.206,295.529 620,298.5C 621,299.833 622,299.833 623,298.5C 623.494,300.134 623.66,301.801 623.5,303.5 Z"/></g>
<g><path style="opacity:0.29" fill="#b6a286" d="M 446.5,313.5 C 446.5,314.5 446.5,315.5 446.5,316.5C 446.334,325.839 446.5,335.173 447,344.5C 447.772,345.849 448.939,346.682 450.5,347C 453.482,347.498 456.482,347.665 459.5,347.5C 459.895,338.057 459.229,328.724 457.5,319.5C 458.906,319.027 459.573,318.027 459.5,316.5C 460.833,316.5 461.5,317.167 461.5,318.5C 461.5,329.5 461.5,340.5 461.5,351.5C 456.5,351.5 451.5,351.5 446.5,351.5C 445.282,338.679 445.282,326.013 446.5,313.5 Z"/></g>
<g><path style="opacity:0.993" fill="#d6c78c" d="M 699.5,320.5 C 698.803,324.827 700.47,327.494 704.5,328.5C 705.871,331.526 707.871,333.859 710.5,335.5C 710.286,337.144 710.62,338.644 711.5,340C 719.113,340.944 726.613,340.444 734,338.5C 735.382,336.12 737.382,334.454 740,333.5C 742.651,335.374 745.151,337.374 747.5,339.5C 746.828,341.16 745.828,342.493 744.5,343.5C 743.078,344.925 741.411,345.925 739.5,346.5C 740.473,344.7 741.473,342.866 742.5,341C 735.364,340.662 728.364,341.496 721.5,343.5C 718.07,343.893 714.904,343.227 712,341.5C 711.586,341.957 711.086,342.291 710.5,342.5C 709.818,341.757 709.151,341.091 708.5,340.5C 708.5,339.167 708.5,337.833 708.5,336.5C 706.692,336.509 705.025,336.009 703.5,335C 702.897,332.929 701.564,331.762 699.5,331.5C 698.795,328.274 697.795,325.107 696.5,322C 697.244,320.961 698.244,320.461 699.5,320.5 Z"/></g>
<g><path style="opacity:1" fill="#d9cb7f" d="M 739.5,346.5 C 732.482,346.746 725.482,346.913 718.5,347C 719.71,345.961 720.71,344.794 721.5,343.5C 728.364,341.496 735.364,340.662 742.5,341C 741.473,342.866 740.473,344.7 739.5,346.5 Z"/></g>
<g><path style="opacity:0.192" fill="#b8a788" d="M 510.5,314.5 C 511.167,314.5 511.833,314.5 512.5,314.5C 512.565,326.187 512.732,337.853 513,349.5C 507.803,351.42 502.303,352.087 496.5,351.5C 496.5,350.833 496.5,350.167 496.5,349.5C 501.167,349.5 505.833,349.5 510.5,349.5C 510.5,346.5 510.5,343.5 510.5,340.5C 510.56,337.979 509.894,335.646 508.5,333.5C 510.3,329.078 510.967,324.411 510.5,319.5C 510.5,317.833 510.5,316.167 510.5,314.5 Z"/></g>
<g><path style="opacity:1" fill="#e2d491" d="M 692.5,335.5 C 693.873,335.343 695.207,335.51 696.5,336C 699.663,339.557 703.663,341.057 708.5,340.5C 709.151,341.091 709.818,341.757 710.5,342.5C 711.086,342.291 711.586,341.957 712,341.5C 714.904,343.227 718.07,343.893 721.5,343.5C 720.71,344.794 719.71,345.961 718.5,347C 725.482,346.913 732.482,346.746 739.5,346.5C 736.512,348.331 733.179,349.498 729.5,350C 723.833,350.667 718.167,350.667 712.5,350C 709.04,348.142 705.373,346.808 701.5,346C 699.152,343.438 697.318,340.605 696,337.5C 694.698,336.915 693.531,336.249 692.5,335.5 Z"/></g>
<g><path style="opacity:1" fill="#ab854e" d="M 446.5,316.5 C 449.738,317.395 452.905,317.395 456,316.5C 457.039,317.244 457.539,318.244 457.5,319.5C 459.229,328.724 459.895,338.057 459.5,347.5C 456.482,347.665 453.482,347.498 450.5,347C 448.939,346.682 447.772,345.849 447,344.5C 446.5,335.173 446.334,325.839 446.5,316.5 Z"/></g>
<g><path style="opacity:1" fill="#a37031" d="M 447.5,325.5 C 450.545,325.508 453.545,325.841 456.5,326.5C 457.193,332.185 456.693,337.852 455,343.5C 453.301,344.406 451.467,344.739 449.5,344.5C 449.666,337.976 448.999,331.643 447.5,325.5 Z"/></g>
<g><path style="opacity:0.995" fill="#d1bd8b" d="M 386.5,332.5 C 387.167,332.5 387.833,332.5 388.5,332.5C 388.335,336.182 388.501,339.848 389,343.5C 389.899,345.368 391.399,346.368 393.5,346.5C 399.162,344.503 401.495,340.503 400.5,334.5C 400.328,333.508 400.662,332.842 401.5,332.5C 401.5,338.167 401.5,343.833 401.5,349.5C 396.5,349.5 391.5,349.5 386.5,349.5C 386.5,343.833 386.5,338.167 386.5,332.5 Z"/></g>
<g><path style="opacity:1" fill="#cfaf6b" d="M 388.5,332.5 C 392.065,335.539 396.065,336.205 400.5,334.5C 401.495,340.503 399.162,344.503 393.5,346.5C 391.399,346.368 389.899,345.368 389,343.5C 388.501,339.848 388.335,336.182 388.5,332.5 Z"/></g>
<g><path style="opacity:1" fill="#9e7742" d="M 496.5,328.5 C 498.28,329.99 498.946,331.99 498.5,334.5C 503.667,334.435 507.667,336.435 510.5,340.5C 510.5,343.5 510.5,346.5 510.5,349.5C 505.833,349.5 501.167,349.5 496.5,349.5C 496.5,342.5 496.5,335.5 496.5,328.5 Z"/></g>
<g><path style="opacity:0.902" fill="#ad926c" d="M 529.5,335.5 C 530.167,335.5 530.833,335.5 531.5,335.5C 531.5,338.167 531.5,340.833 531.5,343.5C 533.824,343.995 535.991,343.995 538,343.5C 539.584,343.988 540.751,344.988 541.5,346.5C 542.265,345.388 543.265,344.721 544.5,344.5C 544.5,346.833 544.5,349.167 544.5,351.5C 539.5,351.5 534.5,351.5 529.5,351.5C 529.5,346.167 529.5,340.833 529.5,335.5 Z"/></g>
<g><path style="opacity:0.671" fill="#d3ceae" d="M 687.5,333.5 C 689.514,333.392 691.18,334.058 692.5,335.5C 693.531,336.249 694.698,336.915 696,337.5C 697.318,340.605 699.152,343.438 701.5,346C 705.373,346.808 709.04,348.142 712.5,350C 718.167,350.667 723.833,350.667 729.5,350C 733.179,349.498 736.512,348.331 739.5,346.5C 741.411,345.925 743.078,344.925 744.5,343.5C 744.5,344.833 744.5,346.167 744.5,347.5C 727.708,356.197 711.375,355.364 695.5,345C 692.21,341.582 689.543,337.749 687.5,333.5 Z"/></g>
<g><path style="opacity:0.855" fill="#b4a37f" d="M 228.5,342.5 C 234.764,342.053 240.764,343.053 246.5,345.5C 252.516,352.513 251.516,358.346 243.5,363C 234.605,367.586 226.271,366.753 218.5,360.5C 217.341,356.878 217.175,353.211 218,349.5C 221.464,346.825 224.964,344.492 228.5,342.5 Z"/></g>
<g><path style="opacity:1" fill="#e0cb85" d="M 230.5,344.5 C 237.172,344.497 241.172,347.83 242.5,354.5C 241.07,357.433 239.07,359.933 236.5,362C 233.5,362.667 230.5,362.667 227.5,362C 225.901,360.934 224.901,359.434 224.5,357.5C 224.582,354.667 224.748,351.667 225,348.5C 227.016,347.253 228.849,345.919 230.5,344.5 Z"/></g>
</svg>
